<?xml version="1.0" encoding="UTF-8" standalone="no"?>
<!-- Created with Inkscape (http://www.inkscape.org/) -->

<svg
   xmlns:dc="http://purl.org/dc/elements/1.1/"
   xmlns:cc="http://creativecommons.org/ns#"
   xmlns:rdf="http://www.w3.org/1999/02/22-rdf-syntax-ns#"
   xmlns:svg="http://www.w3.org/2000/svg"
   xmlns="http://www.w3.org/2000/svg"
   xmlns:sodipodi="http://sodipodi.sourceforge.net/DTD/sodipodi-0.dtd"
   xmlns:inkscape="http://www.inkscape.org/namespaces/inkscape"
   width="784.02612mm"
   height="349.58273mm"
   viewBox="0 0 784.02612 349.58273"
   version="1.1"
   id="svg8"
   inkscape:version="0.92.4 (5da689c313, 2019-01-14)"
   sodipodi:docname="thomson1.svg">
  <defs
     id="defs2" />
  <sodipodi:namedview
     id="base"
     pagecolor="#ffffff"
     bordercolor="#666666"
     borderopacity="1.0"
     inkscape:pageopacity="0.0"
     inkscape:pageshadow="2"
     inkscape:zoom="0.35"
     inkscape:cx="1271.5547"
     inkscape:cy="403.48493"
     inkscape:document-units="mm"
     inkscape:current-layer="g465"
     showgrid="false"
     showborder="true"
     inkscape:window-width="2736"
     inkscape:window-height="1779"
     inkscape:window-x="-13"
     inkscape:window-y="-13"
     inkscape:window-maximized="1"
     fit-margin-top="0"
     fit-margin-left="0"
     fit-margin-right="0"
     fit-margin-bottom="0"
     inkscape:pagecheckerboard="true" />
  <metadata
     id="metadata5">
    <rdf:RDF>
      <cc:Work
         rdf:about="">
        <dc:format>image/svg+xml</dc:format>
        <dc:type
           rdf:resource="http://purl.org/dc/dcmitype/StillImage" />
        <dc:title></dc:title>
      </cc:Work>
    </rdf:RDF>
  </metadata>
  <g
     inkscape:label="Capa 1"
     inkscape:groupmode="layer"
     id="layer1"
     style="display:inline"
     transform="translate(336.51975,93.994013)"
     sodipodi:insensitive="true">
    <g
       id="g3968">
      <g
         id="g542">
        <g
           id="g503">
          <g
             id="g465">
            <g
               id="g579">
              <g
                 id="g428">
                <g
                   id="g392">
                  <g
                     id="g3945">
                    <g
                       id="g357">
                      <g
                         id="g324">
                        <g
                           id="g292">
                          <g
                             id="g261">
                            <g
                               id="g231">
                              <g
                                 id="g202">
                                <g
                                   id="g174">
                                <g
                                   id="g147">
                                <g
                                   id="g121">
                                <g
                                   id="g96">
                                <g
                                   id="g72">
                                <g
                                   id="g49">
                                <g
                                   id="g3923">
                                <g
                                   id="g3902">
                                <g
                                   id="g3882">
                                <g
                                   id="g3863">
                                <g
                                   id="g3845">
                                <g
                                   id="g3828">
                                <g
                                   id="g3812">
                                <g
                                   id="g3797">
                                <g
                                   id="g3783">
                                <g
                                   id="g3770">
                                <g
                                   id="g3758">
                                <g
                                   id="g3747">
                                <g
                                   id="g3737">
                                <g
                                   id="g3728">
                                <g
                                   id="g3720">
                                <g
                                   id="g3724">
                                <path
                                   inkscape:connector-curvature="0"
                                   id="path3732"
                                   d="m 108.24709,255.27598 c -0.19798,-0.19529 -0.35999,-11.47084 -0.35999,-25.05677 v -24.7017 l -1.39669,-0.28277 c -5.95486,-1.20561 -9.520415,-3.00843 -12.573377,-6.35738 -3.589314,-3.93731 -3.805933,-5.11331 -3.805933,-20.66217 0,-14.69079 -0.364601,-17.50988 -2.745721,-21.22997 -1.505434,-2.35198 -4.5065,-4.75854 -7.637396,-6.12444 -5.529869,-2.4125 -6.282683,-2.44707 -53.610475,-2.46183 -47.389571,-0.0148 -53.624659,-0.25167 -60.830084,-2.31102 -9.948449,-2.84331 -15.042852,-7.36884 -18.734164,-16.6422 -0.933245,-2.34451 -2.096375,-4.69819 -2.584732,-5.2304 -2.245058,-2.44665 -0.61347,-2.36859 -49.241208,-2.35591 l -45.60796,0.0119 -2.79337,1.15277 c -1.53636,0.63402 -5.65023,3.01138 -9.14194,5.283 -12.93546,8.41552 -21.76473,11.29317 -38.7526,12.63034 -28.58388,2.24995 -51.76102,-5.02059 -65.61791,-20.58395 -1.67602,-1.88242 -4.07578,-4.65985 -5.33279,-6.17207 -3.52162,-4.23658 -3.85546,-4.35554 -12.223,-4.35554 -6.75766,0 -7.38242,-0.0815 -9.35317,-1.22058 -3.42991,-1.98244 -5.82574,-6.05596 -7.03825,-11.966882 l -0.63425,-3.0919 -16.99155,-0.25046 -16.99155,-0.25045 v -1.25226 -1.25226 l 17.0409,-0.13176 17.04089,-0.13178 0.64787,-3.1241 c 0.84857,-4.09189 2.06255,-6.74329 4.1729,-9.1138 2.74791,-3.08667 4.83048,-3.75415 11.75309,-3.76692 l 5.96171,-0.011 7.24332,-7.1555 c 8.88009,-8.77243 12.81932,-11.43149 25.65693,-17.31894 12.78987,-5.86556 16.98897,-8.82947 19.0336,-13.43478 0.43591,-0.98181 0.70675,-6.44542 0.88943,-17.94153 0.25461,-16.0232799 0.29836,-16.5957499 1.4274,-18.6812299 2.55384,-4.71724 7.94752,-8.66186 12.91501,-9.44527 1.06764,-0.16838 2.03885,-0.4620201 2.15824,-0.6525501 0.11939,-0.19053 -0.0183,-6.75407 -0.30609,-14.58564 -0.32025,-8.71645 -0.35956,-19.48474 -0.10136,-27.76362 l 0.4218,-13.52439 h 1.26972 1.26971 l 0.30013,27.04879 c 0.16507,14.87684 0.46486,27.41667 0.66621,27.86629 0.22951,0.51253 1.53222,1.04376 3.49208,1.4240401 5.97851,1.16003 10.99856,4.60283 13.484,9.24746 l 1.35724,2.5363 0.25394,16.2793699 0.25394,16.27936 1.39326,2.33749 c 2.45038,4.11106 4.95738,5.97012 21.11514,15.65791 4.27884,2.56548 9.20254,5.87742 10.94156,7.35986 l 3.16184,2.69534 45.68769,-0.04 c 52.798034,-0.0462 48.070152,0.43308 50.59343,-5.12917 0.834882,-1.8404 2.129574,-4.6918 2.877091,-6.33645 2.784803,-6.12697 9.395031,-10.88029 18.627229,-13.39458 4.028432,-1.09709 4.494057,-1.10904 54.597707,-1.40146 45.620225,-0.26626 50.822523,-0.3782 53.495109,-1.15111 6.95399,-2.01108 11.408147,-5.34811 13.718027,-10.27745 1.031012,-2.2002 1.112863,-3.29767 1.351427,-18.1204999 l 0.253943,-15.77847 1.508979,-2.6869501 c 2.412554,-4.29592 7.059154,-7.46536 12.843918,-8.76086 l 2.91522,-0.65285 0.25394,-26.5084 0.25394,-26.5084 h 1.26972 1.26971 l 0.25394,26.53629 0.25394,26.53629 2.53943,0.55738 c 5.98168,1.31292 11.28085,5.08591 13.56461,9.658 1.11933,2.2407901 1.17398,2.9371901 1.42102,18.1088701 0.24906,15.2912499 0.29381,15.8517099 1.44925,18.1506499 2.38965,4.75456 6.80526,7.88163 13.78432,9.7619 3.06164,0.82484 7.06159,0.88941 55.10559,0.88941 47.53475,0 52.0659,-0.0714 54.97791,-0.86604 5.20055,-1.41918 7.16881,-2.72652 14.09454,-9.36169 8.05197,-7.71415 12.61126,-11.40214 19.85036,-16.0567799 25.42003,-16.34469 56.63331,-20.7673501 86.5979,-12.27019 33.96811,9.63245 60.89488,36.3658499 69.5651,69.0655099 7.91591,29.85487 1.69705,61.398882 -16.74733,84.947462 -16.80421,21.45451 -41.36662,35.24147 -69.24584,38.86784 -9.42498,1.22595 -25.35411,0.73968 -33.89882,-1.03484 -21.55513,-4.47646 -40.07081,-14.6398 -56.12137,-30.80531 -5.30685,-5.34487 -7.78883,-7.16865 -11.81692,-8.68319 l -2.91176,-1.09481 -52.56617,-0.14656 c -46.05421,-0.12839 -53.0066,-0.0501 -56.12136,0.63221 -7.22701,1.58306 -12.31664,5.05308 -14.5427,9.91493 -1.15554,2.52376 -1.20806,3.17865 -1.45423,18.14626 -0.24028,14.6082 -0.32103,15.66805 -1.36276,17.89206 -2.18335,4.66121 -7.5101,8.51966 -13.36739,9.68277 l -2.79338,0.5547 -0.25394,25.00571 c -0.25079,24.69783 -0.26669,25.00752 -1.29064,25.15207 -0.57015,0.0805 -1.19866,-0.0134 -1.39668,-0.2087 z M 107.8871,168.43156 V 134.87102 H 72.555657 c -23.383604,0 -35.663649,-0.17535 -36.313824,-0.51852 -1.111823,-0.58686 -1.300324,-2.1266 -0.347526,-2.83875 0.812556,-0.60733 34.698342,-14.33805 38.678819,-15.67289 2.926666,-0.98144 4.262573,-1.00598 54.758074,-1.00598 34.70697,0 52.08184,0.17082 52.74057,0.51852 1.11207,0.58696 1.29993,2.1244 0.34755,2.84374 -0.34917,0.26373 -9.43398,4.06689 -20.18846,8.45147 l -19.55359,7.97196 -15.87143,0.14545 -15.87143,0.14545 v 33.60434 33.60433 l 2.05928,-0.32477 c 4.59656,-0.72491 9.36241,-3.93404 11.10014,-7.47436 0.99033,-2.01762 1.06204,-3.0152 1.07159,-14.90249 0.006,-7.00707 0.22245,-14.1883 0.48188,-15.9583 0.98718,-6.73616 5.11842,-12.22711 11.35201,-15.08831 7.34184,-3.36989 4.20829,-3.18742 57.99018,-3.37698 33.12659,-0.11676 50.51689,0.005 54.24665,0.38102 9.75248,0.98219 13.21367,2.82519 22.19014,11.81576 17.41484,17.44223 38.72191,27.69713 63.02637,30.33404 6.41028,0.69548 19.58702,0.29172 26.3615,-0.80777 17.92044,-2.90848 34.99302,-10.40411 48.51197,-21.29902 3.83921,-3.09397 14.46585,-13.78609 14.46585,-14.55494 0,-0.26886 -3.86267,-0.46499 -9.15789,-0.46499 -7.66079,0 -9.20553,-0.12249 -9.44941,-0.74933 -0.16903,-0.43438 1.0273,-2.75725 2.84629,-5.52657 7.37587,-11.22946 12.33035,-24.11136 14.53945,-37.80361 1.12786,-6.990372 1.14645,-21.454682 0.0366,-28.301052 -2.17202,-13.39671 -6.65929,-25.41678 -13.62123,-36.48743 -1.38039,-2.1951 -2.39387,-4.28915 -2.25212,-4.65343 0.19828,-0.5096 2.44994,-0.69378 9.7641,-0.79869 l 9.50645,-0.13635 -3.81041,-4.50814 C 409.19624,16.056878 390.95025,4.7719881 370.79943,-0.3522519 c -24.18892,-6.15111 -49.25912,-3.69646 -70.89886,6.94179 -11.1812,5.4967299 -18.21471,10.5651699 -29.11236,20.9786199 -5.97898,5.71335 -8.19966,7.50324 -10.79536,8.70123 -6.42638,2.96591 -6.67464,2.9769 -63.28977,2.80117 -56.137,-0.17424 -52.84027,-0.006 -59.56874,-3.04383 -3.72077,-1.68002 -8.08615,-5.7953 -9.68644,-9.13153 -1.84647,-3.84956 -2.27122,-7.97123 -2.28249,-22.1499699 -0.008,-9.65303 -0.17771,-13.05964 -0.71521,-14.32839 -1.53635,-3.6264801 -7.15428,-7.4780901 -11.52646,-7.9025101 l -1.73535,-0.16845 -0.13067,32.18306 -0.13073,32.18305 35.42878,0.008 c 19.48579,0.004 35.73443,0.19876 36.10803,0.43232 0.3736,0.23356 0.60215,0.96268 0.50788,1.62027 -0.15302,1.06735 -2.29625,2.06547 -19.97895,9.30448 l -19.80754,8.10887 -53.835878,-0.0944 -53.835879,-0.0944 -0.153031,-1.29903 c -0.148552,-1.26102 0.35683,-1.50575 17.268112,-8.36224 26.650223,-10.80502 21.759873,-9.62351 39.832314,-9.62351 H 107.8946 l -0.13073,-32.18305 -0.13067,-32.18306 -1.7776,0.16115 c -4.18666,0.37955 -9.392486,3.73135 -11.322731,7.29019 -1.069424,1.9717101 -1.132042,2.7852601 -1.374415,17.8567501 l -0.253943,15.7909099 -1.666154,3.336 c -2.721322,5.44866 -7.599366,9.06781 -15.181418,11.2635 -2.669904,0.77317 -7.887287,0.88877 -53.240647,1.17963 -35.334865,0.22661 -51.03552,0.49554 -52.820108,0.90473 -6.735046,1.54426 -11.052577,3.4866 -14.590366,6.5638 -2.322242,2.01991 -3.510151,4.03903 -7.033358,11.95482 -0.653278,1.46776 -1.740651,3.25701 -2.416378,3.97611 -0.981581,1.04458 -1.110969,1.46479 -0.643532,2.08993 4.442948,5.94197 6.926423,20.81032 5.720271,34.2468 -0.838256,9.338192 -2.533461,15.518512 -5.475927,19.963942 -0.868144,1.31159 -0.856686,1.36405 0.673233,3.08258 0.856026,0.96155 2.414498,3.93244 3.463272,6.60197 3.245064,8.2599 7.940208,12.19349 17.763357,14.88211 4.035319,1.10448 4.40668,1.11405 54.343764,1.40086 49.427508,0.28387 50.346771,0.30703 54.175695,1.3645 8.985127,2.48152 14.028081,6.7597 16.243565,13.78021 0.815553,2.58435 0.939045,4.75902 0.941508,16.5795 0.003,14.40521 0.258179,16.49539 2.347204,19.2257 2.417282,3.15935 7.775528,6.08466 11.235908,6.13417 l 1.14274,0.0164 z m 77.86689,-30.36449 c -0.37766,-0.97069 3.7513,-20.69557 4.5245,-21.61443 0.40524,-0.48153 2.50804,-0.60649 8.46575,-0.50309 l 7.92662,0.13759 0.17522,1.22419 c 0.2966,2.07239 -1.03944,2.53258 -7.35271,2.53258 -3.1425,0 -5.83307,0.19056 -5.97899,0.42346 -0.14596,0.2329 -0.41722,1.35993 -0.60281,2.50452 l -0.33738,2.08106 5.01679,0.008 c 2.75924,0.004 5.32076,0.19773 5.69233,0.43003 0.38366,0.2399 0.60312,1.04807 0.50789,1.87072 l -0.16766,1.44837 -6.05755,0.25045 -6.0576,0.25045 -0.59697,2.62015 c -0.32835,1.44108 -0.47838,2.73716 -0.33333,2.88019 0.14501,0.14303 2.82588,0.26005 5.9575,0.26005 4.20804,0 5.8449,0.1795 6.2727,0.68787 0.61068,0.72572 0.24708,2.31575 -0.67138,2.93601 -0.2997,0.20241 -4.03744,0.37146 -8.30611,0.37568 -6.68931,0.007 -7.80478,-0.10436 -8.07681,-0.80351 z m -0.29706,-68.944052 c -0.34089,-0.87617 4.03429,-20.85947 4.75437,-21.71521 0.70982,-0.84351 8.84168,-0.96837 11.71982,-0.17995 4.43099,1.21377 6.34638,5.97165 4.74822,11.79459 -1.20542,4.3919 -3.37343,7.45384 -6.55005,9.25076 -2.46644,1.39519 -2.9049,1.47119 -8.51369,1.47565 -4.28777,0.004 -5.98076,-0.16863 -6.15867,-0.62584 z m 13.20924,-4.17748 c 2.00823,-1.43859 3.85303,-5.38718 4.10184,-8.77941 0.18792,-2.56257 0.0698,-3.01148 -1.09444,-4.15974 -1.1333,-1.1177 -1.73885,-1.28717 -4.59947,-1.28717 -1.81193,0 -3.41715,0.19591 -3.56718,0.43536 -0.57884,0.92368 -3.30959,14.23875 -3.01623,14.70691 0.54694,0.87284 6.62978,0.19134 8.17548,-0.91595 z m -390.17766,71.729202 c 10.58288,-1.93249 16.68157,-4.40924 26.70027,-10.84328 3.88581,-2.49548 8.15274,-5.00549 9.48207,-5.5778 3.04151,-1.30944 2.89155,-1.11469 1.9498,-2.53223 -5.2091,-7.84079 -6.51116,-33.328952 -2.33968,-45.799722 1.12261,-3.35609 1.06932,-3.42614 -2.9849,-3.923 -9.85696,-1.20802 -22.61004,-7.99595 -29.30094,-15.59567 -10.75022,-12.21039 -16.99198,-28.38646 -20.31606,-52.6507599 -1.03121,-7.52743 -0.83741,-7.32651 -5.43181,-5.63116 -3.36648,1.24225 -6.64169,3.94489 -8.10343,6.68679 -1.05243,1.97411 -1.11984,2.87886 -1.38638,18.6048399 -0.31926,18.83702 -0.24564,18.47189 -4.65051,23.06536 -3.36509,3.50917 -6.56543,5.41445 -17.3371,10.32137 -4.76304,2.16975 -10.62325,5.22252 -13.0227,6.78394 -4.18413,2.72277 -14.50964,12.28493 -17.47271,16.18098 l -1.33333,1.75316 -7.69372,0.25045 -7.69371,0.25046 -1.88365,2.09531 c -1.93404,2.15138 -3.58356,6.17056 -3.58356,8.73163 v 1.44519 h 40.57652 c 44.76557,0 41.19307,0.26879 41.19307,-3.09931 0,-0.83307 0.35966,-2.88355 0.79924,-4.55663 1.78978,-6.81202 5.15356,-10.87898 8.99524,-10.87562 6.13245,0.005 9.98127,6.8916 10.40785,18.62152 0.27617,7.59385 -0.57689,12.163612 -3.11567,16.690312 -4.1739,7.4422 -10.61738,7.04474 -14.50006,-0.89441 -1.36561,-2.79233 -1.83235,-4.59801 -2.84383,-11.002052 l -0.29668,-1.87839 h -40.57787 c -22.31782,0 -40.6861,0.17273 -40.81838,0.38383 -0.48397,0.77231 0.72103,5.44872 2.08278,8.082942 2.32626,4.5 2.9706,4.76653 12.22701,5.05763 4.71116,0.14816 8.37868,0.49044 8.97958,0.83805 1.29752,0.75057 4.16475,3.76696 8.86914,9.33049 9.8013,11.5913 23.12288,18.13507 41.50041,20.38569 5.86226,0.71792 27.70173,0.25365 32.9237,-0.69991 z m -40.87468,-4.68469 c -2.87273,-1.42348 -4.0732,-3.69086 -4.0732,-7.69329 0,-9.56159 7.04635,-16.49733 15.49148,-15.24831 2.86998,0.42446 5.13506,2.2675 5.9061,4.80564 0.7002,2.30492 0.0459,3.48531 -1.93209,3.48531 -0.92714,0 -1.41598,-0.43088 -1.96852,-1.7351 -0.88443,-2.08765 -2.04395,-2.77304 -4.69134,-2.77304 -3.85893,0 -7.21104,3.40195 -8.25933,8.38211 -0.68991,3.2776 -0.0391,6.30801 1.53284,7.13773 0.53046,0.27999 2.05635,0.50908 3.39086,0.50908 2.28737,0 2.57532,-0.15784 5.02605,-2.75497 4.41795,-4.68186 7.46433,-3.14971 3.65737,1.83945 -3.25611,4.26724 -9.82415,6.15431 -14.08022,4.04539 z m 112.90224,-15.13485 c 2.38691,-2.79768 4.91711,-13.05273 4.91711,-19.929352 0,-2.69594 -0.11887,-3.15429 -0.69561,-2.68222 -1.16937,0.95715 -10.56551,4.56233 -11.89074,4.56233 -1.23454,0 -1.24184,0.0282 -0.87814,3.381102 0.90331,8.32748 4.1006,16.15414 6.59916,16.15414 0.37423,0 1.25093,-0.6687 1.94822,-1.486 z m 27.558813,-1.14374 c -2.925279,-6.55803 -4.068032,-14.78067 -3.696788,-26.600142 0.30047,-9.56633 1.302097,-15.54374 3.381533,-20.18003 0.569964,-1.27077 1.036295,-2.50725 1.036295,-2.74773 0,-0.24048 -5.623889,-0.43723 -12.497533,-0.43723 -11.7084,0 -12.47358,0.0553 -12.11804,0.87658 3.46167,7.996 4.49009,13.81845 4.49009,25.42086 0,11.602402 -1.02842,17.424852 -4.49009,25.420852 -0.35564,0.82147 0.4204,0.87658 12.34403,0.87658 h 12.723531 z m 34.911125,1.14374 c 3.017008,-3.53622 4.91711,-13.12401 4.91711,-24.811432 0,-11.87877 -1.947691,-21.50183 -5.043574,-24.9191 -1.849216,-2.04118 -3.221635,-1.56202 -4.9039,1.71214 -1.878019,3.65515 -3.142857,9.08212 -3.848483,16.51248 -1.030845,10.85495 0.606944,23.592502 3.84344,29.891622 1.814706,3.53192 3.059005,3.93083 5.035407,1.61429 z m -7.596365,-22.306922 c -0.558958,-1.43658 0.237396,-2.05108 5.136324,-3.96338 4.448505,-1.73648 5.00369,-1.84799 5.713775,-1.14767 1.324362,1.30615 0.415648,2.14202 -4.391759,4.03971 -5.119111,2.02072 -6.030151,2.17184 -6.45834,1.07134 z m -56.772223,-0.95239 c 2.69922,-1.07987 3.02324,-1.36613 3.16916,-2.79986 0.1825,-1.79299 0.007,-1.79079 -4.36338,0.0548 -2.24193,0.94671 -2.97733,1.89769 -2.47195,3.19659 0.36563,0.93972 0.11002,0.9712 3.66617,-0.45149 z m -6.30461,-3.7492 c 0.28187,-0.73911 11.52421,-5.06203 12.35086,-4.74917 0.96576,0.3655 0.96532,-0.064 -0.006,-5.63596 -1.28935,-7.39788 -3.48464,-12.89048 -5.39055,-13.48708 -3.21426,-1.00614 -6.31762,6.5165 -7.5218,18.23312 -0.29323,2.85304 -0.53314,5.38887 -0.53314,5.63517 0,0.57988 0.87958,0.58301 1.10043,0.004 z m -28.34742,-27.50364 c -1.86035,-1.70281 -7.1575,-5.26023 -13.10534,-8.80117 -14.5924,-8.68733 -17.62756,-11.16286 -20.65671,-16.84796 -1.1733,-2.20205 -1.20694,-2.62977 -1.45792,-18.53343 -0.28638,-18.1463699 -0.22209,-17.8037699 -3.96673,-21.1403099 -2.1538,-1.91908 -6.84682,-3.90487 -9.22839,-3.90487 -1.36809,0 -1.45702,0.11561 -1.2523,1.62794 2.05019,15.14478 3.35311,21.5159599 6.17176,30.1794399 5.78973,17.79542 15.10038,29.65994 28.08023,35.7825 4.85666,2.29088 12.80975,4.48974 16.25234,4.49342 l 2.28549,0.003 -3.12243,-2.85802 z m 8.62574,88.272642 c -0.35945,-0.92384 -0.64211,-0.38884 6.5981,-12.4888 l 5.69475,-9.51716 2.15308,-0.15425 c 1.42935,-0.10241 2.23433,0.066 2.3948,0.5009 0.13295,0.36033 0.93517,5.24768 1.7827,10.86077 1.64202,10.8748 1.59329,11.58369 -0.79622,11.58369 -1.46422,0 -1.86388,-0.59659 -2.5167,-3.75678 l -0.51737,-2.50452 -3.86648,-0.14522 -3.86648,-0.14523 -1.40036,2.39929 c -0.77018,1.31961 -1.74687,2.79376 -2.1704,3.27588 -0.95688,1.08925 -3.07954,1.14487 -3.48942,0.0914 z m 14.04469,-10.86086 c -0.009,-1.83003 -0.60897,-4.88381 -0.9594,-4.88381 -0.17831,0 -1.07807,1.35244 -1.99947,3.00542 l -1.67527,3.00542 h 2.31987 c 2.06885,0 2.31926,-0.12194 2.31427,-1.12703 z m 47.348505,11.02483 c -0.49624,-0.58971 -0.20934,-2.67676 1.436743,-10.45159 1.131239,-5.3431 2.277918,-10.23974 2.548174,-10.88142 0.483949,-1.14906 0.590305,-1.1642 7.034775,-1.00181 7.324645,0.18457 8.38571,0.6218 8.97055,3.69643 0.389559,2.04797 -0.0098,3.32365 -1.637921,5.23195 l -1.275483,1.49499 1.056635,1.32483 c 1.722581,2.1598 1.189093,5.18496 -1.388132,7.87142 -2.413509,2.5158 -3.954865,3.00142 -10.268483,3.2352 -4.730782,0.17517 -5.976011,0.0752 -6.476858,-0.52 z m 13.653119,-4.82497 c 0.53131,-0.64712 0.966019,-1.81723 0.966019,-2.60026 0,-1.21845 -0.274532,-1.49887 -1.904571,-1.94533 -1.047514,-0.2869 -2.995835,-0.52291 -4.329598,-0.52444 -2.699925,-0.003 -2.958048,0.30969 -3.660134,4.43557 l -0.371696,2.1843 4.166978,-0.18663 c 3.636243,-0.16286 4.290024,-0.33648 5.133002,-1.36321 z m 0.643583,-9.61731 c 1.776721,-1.37836 1.794025,-3.32385 0.03545,-3.98327 -0.716545,-0.26868 -2.422619,-0.48851 -3.791295,-0.48851 -2.754299,0 -3.156748,0.38972 -3.750111,3.63155 l -0.343808,1.87839 h 3.255781 c 2.524745,0 3.556251,-0.23311 4.593983,-1.03816 z M -336.16267,106.4979 c -0.68551,-0.67607 -0.33473,-2.1549 0.63221,-2.66528 1.17731,-0.62142 15.73324,-0.68982 16.71107,-0.0785 0.37362,0.23356 0.60216,0.96268 0.50789,1.62027 l -0.17141,1.19561 -8.66479,0.13665 c -4.76565,0.0752 -8.82238,-0.0188 -9.01497,-0.20872 z m 127.2307,-184.611082 c -0.33521,-0.33059 -0.60946,-1.78449 -0.60946,-3.23088 v -2.62978 l -2.86778,-0.15023 c -3.01874,-0.15813 -4.19232,-1.00665 -3.57756,-2.58666 0.24641,-0.63331 1.01459,-0.81943 3.38208,-0.81943 h 3.06326 l 0.008,-2.62975 c 0.009,-3.16909 0.47764,-4.02422 2.0812,-3.8006 1.08961,0.15194 1.23797,0.47315 1.46622,3.17447 l 0.25394,3.00542 3.04732,0.25046 c 2.73897,0.22511 3.06466,0.37143 3.21872,1.44606 0.22673,1.58152 -0.64031,2.04334 -3.85358,2.05259 l -2.66639,0.008 v 2.95183 c 0,2.22961 -0.19657,3.02622 -0.80337,3.25587 -1.13394,0.42915 -1.45057,0.38525 -2.14237,-0.29704 z"
                                   style="fill:#d3d3d3;stroke-width:0.50438255" />
                                <path
                                   inkscape:connector-curvature="0"
                                   id="path3730"
                                   d="m 108.46208,254.91712 c -0.39392,-0.46808 -0.6052,-8.08664 -0.69708,-25.13605 l -0.13184,-24.4644 -3.30126,-0.8134 c -6.099962,-1.50298 -10.428062,-4.69221 -12.792361,-9.42621 -1.132748,-2.26808 -1.183521,-2.91255 -1.428439,-18.13014 l -0.253942,-15.77846 -1.35123,-2.52463 c -1.619896,-3.02659 -5.281884,-6.47941 -8.241166,-7.77044 -6.350364,-2.77046 -4.087124,-2.6558 -58.718225,-2.97464 -50.128527,-0.29257 -50.566908,-0.30383 -54.552165,-1.40189 -11.036426,-3.04088 -16.529778,-7.63583 -20.116792,-16.82684 -0.8476,-2.17181 -1.986138,-4.56516 -2.530083,-5.31856 -2.052833,-2.8433 -0.454223,-2.75438 -49.518427,-2.75438 -42.13765,0 -45.37853,0.0608 -47.80849,0.89726 -1.43366,0.4935 -5.54753,2.81919 -9.14194,5.16821 -10.82117,7.07184 -17.71711,9.89621 -29.39013,12.03729 -4.19016,0.76857 -7.52278,0.92787 -19.04572,0.91043 -15.0123,-0.0227 -19.38788,-0.48148 -27.93974,-2.92933 -13.36289,-3.82493 -22.32664,-9.7947 -31.84512,-21.20854 -2.35836,-2.82796 -4.77806,-5.48033 -5.37711,-5.89416 -0.84104,-0.58098 -2.71225,-0.7549 -8.21354,-0.7634 -9.60396,-0.0148 -11.95849,-1.12835 -15.05866,-7.12164 -0.83619,-1.61655 -2.43158,-7.447022 -2.46854,-9.021502 -0.005,-0.20662 -7.52293,-0.37568 -16.70686,-0.37568 -14.2231,0 -16.79174,-0.11136 -17.3303,-0.75135 -0.50164,-0.59614 -0.5028,-0.90519 -0.006,-1.49603 0.52716,-0.62646 3.29724,-0.76561 17.45041,-0.87658 l 16.82379,-0.13191 0.40017,-2.74339 c 0.54375,-3.72768 3.21904,-8.83335 5.62739,-10.73963 1.93228,-1.52945 2.01998,-1.54646 9.25146,-1.79454 5.60322,-0.19222 7.46039,-0.42514 7.98756,-1.00181 0.37778,-0.41324 2.25489,-2.51243 4.17137,-4.66485 6.31359,-7.0909 14.1919,-12.89547 23.04427,-16.97852 17.37687,-8.0149 21.07944,-10.42679 23.4608,-15.2826 1.13365,-2.31162 1.18445,-2.97013 1.46008,-18.92477 0.32061,-18.5584999 0.2714,-18.3002099 4.24147,-22.2632699 2.42703,-2.42275 5.69456,-4.21002 9.31384,-5.0945 1.36109,-0.33262 2.58898,-0.7717901 2.72865,-0.9759401 0.13967,-0.20414 0.10544,-2.59073 -0.0761,-5.30352 -0.1815,-2.71279 -0.35291,-14.99169 -0.38091,-27.28645 -0.0439,-19.30112 0.0531,-22.43926 0.71093,-22.97767 0.61047,-0.49967 0.9258,-0.48936 1.58709,0.0519 0.74273,0.60793 0.79042,2.17937 0.47695,15.71456 -0.31501,13.60148 0.30123,39.07766 0.96098,39.72833 0.14044,0.13851 1.42786,0.43464 2.86094,0.6580701 5.78014,0.90115 11.7323,4.84337 13.93843,9.23164 0.9133,1.81668 1.02069,3.38251 1.25287,18.2663799 0.22971,14.72645 0.34554,16.4466 1.2142,18.03252 2.50187,4.56772 6.20742,7.50342 19.33331,15.31665 5.51775,3.28447 11.59837,7.26132 13.51249,8.83745 l 3.48022,2.8657 44.08074,-0.0152 c 24.244405,-0.008 45.20964,-0.19798 46.589408,-0.4214 3.261235,-0.52808 4.737821,-2.1552 6.80811,-7.50221 3.833638,-9.90126 9.629081,-14.45049 22.192633,-17.42047 3.127483,-0.73932 9.327238,-0.87098 53.815375,-1.14279 46.605101,-0.28474 50.48488,-0.37331 53.074051,-1.2116 4.478962,-1.45016 8.586823,-3.83929 10.443454,-6.07391 3.441957,-4.14271 3.479154,-4.35742 3.774012,-21.7837399 l 0.266976,-15.77847 1.352377,-2.5363001 c 0.743814,-1.39497 2.308259,-3.388 3.476549,-4.42897 2.260243,-2.01394 7.692635,-4.80037 9.382175,-4.81241 0.55867,-0.004 1.52797,-0.14263 2.15404,-0.30811 l 1.13827,-0.30089 0.13144,-26.36539 0.13145,-26.36539 h 1.26971 1.26971 l 0.13144,26.38806 0.13145,26.38807 2.66193,0.54563 c 5.96389,1.22245 11.05072,4.72285 13.28268,9.14027 1.31268,2.5979201 1.31456,2.6205501 1.31842,15.6520501 0,7.1776999 0.23972,14.4843899 0.5281,16.2370699 1.3491,8.19991 6.52943,12.83932 16.57139,14.841 3.50162,0.69798 10.10022,0.77289 55.5243,0.63031 55.75116,-0.175 53.32215,-0.0575 58.85333,-2.84631 1.22319,-0.61675 5.68405,-4.42669 9.91301,-8.46653 4.22891,-4.03984 9.39888,-8.62498 11.48883,-10.18919 14.23385,-10.6532899 30.57335,-17.5025899 48.41034,-20.2929899 7.09293,-1.1096 22.57836,-1.07909 29.99055,0.0591 30.60245,4.69921 55.78961,20.2930699 72.06481,44.6167499 16.73153,25.00557 20.47114,58.84829 9.65866,87.407672 -12.52481,33.08202 -42.27447,56.87502 -78.88464,63.08983 -21.70612,3.68475 -43.51834,0.60002 -63.29932,-8.95194 -11.82454,-5.70989 -20.26001,-11.82014 -31.9165,-23.1187 -3.41456,-3.30971 -6.57407,-5.89384 -8.12617,-6.64625 -5.38206,-2.60909 -4.78905,-2.58363 -60.18445,-2.58363 -47.33321,0 -51.83171,0.0713 -54.98944,0.87185 -8.97723,2.27585 -13.83246,6.92321 -15.06586,14.42082 -0.29321,1.78242 -0.53709,9.10133 -0.54192,16.26425 -0.009,12.59508 -0.0477,13.10589 -1.19658,15.52802 -1.23441,2.60281 -4.67823,6.10687 -7.33204,7.46035 -0.84456,0.43072 -3.09901,1.20551 -5.00998,1.72175 l -3.47445,0.93862 -0.13185,24.44742 c -0.12772,23.6841 -0.26215,25.79073 -1.64573,25.79073 -0.21093,0 -0.63786,-0.30224 -0.94868,-0.67166 z m -0.6984,-86.61079 -0.13052,-33.68576 -36.059886,-0.25045 -36.059881,-0.25045 v -1.1977 c 0,-1.101 1.373724,-1.75826 17.014169,-8.14045 9.357793,-3.81851 18.614009,-7.50733 20.569369,-8.19737 l 3.5552,-1.25463 53.074049,0.12836 53.07405,0.12835 v 1.20332 c 0,1.11014 -1.51426,1.82731 -19.5536,9.26076 l -19.55359,8.05744 -16.25234,0.25641 -16.25235,0.25641 -0.13052,33.68576 -0.13058,33.68577 1.65424,-0.005 c 2.29513,-0.007 6.85996,-2.19668 9.18734,-4.40749 3.68619,-3.50147 3.61224,-3.10983 3.89427,-20.63279 l 0.25394,-15.77847 1.57876,-3.25587 c 2.03352,-4.19383 5.14011,-7.21065 9.6093,-9.33165 6.85473,-3.25316 5.30065,-3.17354 61.94747,-3.17354 55.45827,0 54.97918,-0.0211 60.98458,2.69043 1.99461,0.90061 4.72633,3.1358 9.98767,8.17225 3.98319,3.81291 8.86001,8.2006 10.83741,9.75043 12.65504,9.91864 27.79435,16.9452 43.6381,20.25368 9.12802,1.9061 24.5032,2.23523 34.89718,0.74701 19.99764,-2.86327 37.93306,-10.94278 52.83016,-23.79888 4.98363,-4.30084 12.20983,-12.19841 11.78366,-12.87847 -0.15364,-0.24503 -4.36619,-0.4456 -9.3613,-0.4456 -4.9951,0 -9.20014,-0.18855 -9.34454,-0.41901 -0.14444,-0.23045 1.00018,-2.31546 2.54355,-4.63336 20.56266,-30.88198 21.22108,-71.683802 1.6587,-102.791272 -2.66452,-4.23697 -2.91983,-5.0854 -1.67262,-5.55743 0.44186,-0.16723 4.67001,-0.30404 9.39588,-0.30404 4.72588,0 8.59252,-0.14413 8.59252,-0.32029 0,-0.69051 -6.02784,-7.62547 -9.89133,-11.37989 -14.75885,-14.3421 -33.15782,-23.3776999 -55.39377,-27.2034599 -7.13701,-1.22794 -25.45594,-1.23612 -32.22895,-0.0144 -10.7235,1.93433 -18.08992,4.26323 -27.32491,8.6388 -11.57014,5.4819999 -19.8307,11.3186199 -30.14499,21.2993299 -7.19253,6.95995 -9.47359,8.65615 -13.46009,10.00885 -5.43646,1.8447 -12.15248,2.04464 -62.64394,1.86487 l -48.50308,-0.17268 -3.73412,-1.12607 c -6.6243,-1.99763 -10.58957,-4.50057 -13.31153,-8.40236 -3.09557,-4.43744 -3.19516,-5.0635 -3.49898,-21.9946499 -0.26456,-14.74056 -0.3351,-15.63203 -1.39151,-17.5790501 -2.05383,-3.78543 -6.50789,-6.76369 -11.22869,-7.5082 l -2.14068,-0.3376 0.13073,32.49812 0.13067,32.49811 35.69624,0.12861 c 31.89898,0.11493 35.72879,0.21231 36.00234,0.91542 0.16836,0.43275 -0.0107,1.09836 -0.39818,1.47914 -0.38737,0.38078 -9.58675,4.30792 -20.44311,8.72697 l -19.73888,8.03467 H 89.353188 c -46.248743,0 -53.032968,-0.0943 -53.580484,-0.74498 -0.344793,-0.40973 -0.509684,-1.04622 -0.366424,-1.41441 0.203621,-0.52333 22.422359,-9.85927 37.436708,-15.73027 1.969738,-0.77022 4.530813,-0.92832 18.537827,-1.1444 l 16.252345,-0.25073 0.13067,-32.49811 0.13073,-32.49811 -2.14068,0.3376 c -4.98363,0.78596 -9.763648,4.0975 -11.629081,8.0565201 -0.847169,1.79795 -0.945221,3.41962 -0.955232,15.79845 -0.01173,14.4965399 -0.332563,17.2309599 -2.517391,21.4546999 -1.475621,2.8527 -5.446865,6.44328 -8.950204,8.09228 -6.970035,3.28076 -4.586863,3.14136 -59.901492,3.50392 -33.835834,0.22177 -51.048089,0.51064 -52.627055,0.88321 -10.815811,2.55206 -15.863712,6.55993 -19.774401,15.70022 -1.211327,2.83119 -2.811452,5.81987 -3.555829,6.64152 l -1.353409,1.4939 1.470944,2.28638 c 3.254054,5.05797 4.985619,14.02863 4.985619,25.82885 0,11.762012 -1.730179,20.759092 -4.960042,25.792642 l -1.443863,2.25017 1.621191,2.09468 c 0.891659,1.15208 2.248014,3.74601 3.014124,5.76429 3.554874,9.36513 8.802288,13.64091 19.725918,16.07337 4.469206,0.9952 6.578318,1.04703 54.928346,1.34995 46.551844,0.29165 50.487836,0.38196 53.07405,1.21765 7.26465,2.34747 12.614986,6.76148 14.79316,12.20432 1.083341,2.70707 1.168671,3.80342 1.432543,18.40653 l 0.280581,15.52801 1.371495,2.30091 c 2.23109,3.7429 7.416398,6.88516 11.456178,6.94238 l 1.65423,0.0234 -0.13058,-33.68576 z m 78.08168,-30.54265 c -0.39823,-1.08715 4.13973,-21.00623 4.89282,-21.47675 0.78407,-0.48988 14.13979,-0.61681 15.38325,-0.1462 0.44186,0.16722 0.80337,0.68566 0.80337,1.15208 0,1.74632 -1.07083,2.0502 -7.22457,2.0502 -6.69957,0 -6.67428,-0.0145 -7.07988,4.05269 l -0.17029,1.7077 5.58126,0.25045 c 5.00562,0.22462 5.6006,0.35036 5.76892,1.21915 0.3416,1.76309 -1.27221,2.28718 -7.04301,2.28718 h -5.40243 l -0.59514,2.54273 c -0.32728,1.3985 -0.59509,2.75094 -0.59509,3.00542 0,0.25511 2.5634,0.46613 5.71372,0.47036 3.14254,0.004 6.01941,0.19877 6.39301,0.43232 0.3736,0.23357 0.60215,0.96269 0.50788,1.62027 l -0.17141,1.19561 -8.26421,0.13769 c -6.33806,0.1056 -8.31876,-0.0112 -8.4982,-0.5009 z m -0.0619,-68.745462 c -0.25552,-0.65665 2.63984,-15.41527 3.92403,-20.00233 l 0.50478,-1.80299 h 5.61311 c 8.69469,0 11.09374,1.70139 11.0975,7.87044 0.005,6.26682 -4.03947,12.62118 -8.94503,14.05795 -3.10029,0.90803 -11.82749,0.81996 -12.19439,-0.12307 z m 12.32085,-3.58753 c 2.66457,-1.24704 4.35715,-4.50484 4.64588,-8.94213 0.20976,-3.22288 0.11291,-3.76432 -0.84151,-4.70563 -0.90597,-0.89352 -1.68253,-1.06371 -4.85346,-1.06371 -3.15681,0 -3.81777,0.14353 -4.03672,0.87658 -0.48971,1.63954 -2.85397,13.16122 -2.85397,13.90805 0,1.06069 5.62783,1.00884 7.93978,-0.0732 z m 228.25407,81.447752 c 0.83283,-0.43959 4.54395,-5.54959 4.54395,-6.25676 0,-0.13239 -1.0435,-0.24072 -2.31885,-0.24072 -2.60789,0 -4.28366,-0.68584 -4.28366,-1.75316 0,-1.18473 1.77029,-1.75317 5.45997,-1.75317 h 3.49522 l 1.45911,-3.01088 c 0.90789,-1.87344 1.27895,-3.18722 0.9822,-3.47763 -0.26233,-0.25671 -1.73184,-0.53601 -3.26556,-0.62067 -2.25547,-0.12449 -2.82338,-0.33398 -2.97031,-1.0957 -0.27005,-1.39974 0.79128,-1.79701 4.82349,-1.80552 l 3.63554,-0.008 1.05143,-3.07072 c 0.57833,-1.6889 0.92862,-3.26674 0.77849,-3.50633 -0.15014,-0.23958 -1.87451,-0.4356 -3.8319,-0.4356 h -3.55896 l 0.1607,-1.37749 c 0.15917,-1.36447 0.2001,-1.37885 4.33663,-1.52274 l 4.17599,-0.14526 0.56553,-2.07135 c 0.31103,-1.13925 0.60306,-2.65173 0.64892,-3.36107 0.0814,-1.25789 -0.0107,-1.29589 -3.72092,-1.54016 -3.20674,-0.21111 -3.83291,-0.39839 -3.98609,-1.19224 -0.27024,-1.40058 0.79154,-1.79701 4.83589,-1.80552 4.10193,-0.009 4.04434,0.0482 4.31885,-4.26534 l 0.15938,-2.50452 -3.80915,-0.250452 c -3.65677,-0.24044 -3.80914,-0.30055 -3.80914,-1.50272 0,-1.21543 0.11575,-1.25656 3.93612,-1.39855 l 3.93611,-0.1463 v -3.46418 -3.46418 l -3.93611,-0.1463 c -3.82037,-0.14199 -3.93612,-0.18312 -3.93612,-1.39856 0,-1.21543 0.11575,-1.25656 3.93612,-1.39855 4.43074,-0.16468 4.2835,0.0307 3.61314,-4.79283 l -0.32296,-2.32398 h -3.9319 c -4.11849,0 -5.39654,-0.58663 -4.7725,-2.19058 0.25293,-0.65003 1.07047,-0.81484 4.04191,-0.81484 2.04866,0 3.83189,-0.17084 3.96273,-0.37964 0.13083,-0.20881 -0.0361,-1.7303 -0.37041,-3.3811 l -0.60829,-3.00146 -4.12484,-0.14476 c -4.26345,-0.14961 -5.65597,-0.79842 -5.05098,-2.35338 0.22469,-0.57741 1.14848,-0.75774 3.88192,-0.75774 2.40246,0 3.6676,-0.20692 3.83088,-0.62655 0.13409,-0.3446 -0.15881,-1.8661 -0.6508,-3.3811 l -0.89459,-2.75454 -3.30126,-0.12812 c -4.8113,-0.18673 -5.58674,-0.44026 -5.58674,-1.82662 0,-1.37541 1.07169,-1.78492 4.69794,-1.7952 1.32685,-0.004 2.41246,-0.20987 2.41246,-0.458 0,-0.87625 -2.47879,-5.7142 -3.13944,-6.12734 -0.36832,-0.23034 -2.44811,-0.42226 -4.62176,-0.42648 -3.19415,-0.006 -4.01352,-0.16565 -4.27259,-0.83146 -0.51632,-1.32708 1.2627,-2.18163 4.54187,-2.18163 h 2.97956 l -1.42599,-2.52997 c -2.61861,-4.64593 -2.21763,-4.48268 -11.01096,-4.48268 -4.27229,0 -7.90925,0.13952 -8.08214,0.31004 -0.17288,0.17052 0.38026,1.4666 1.22929,2.88019 13.05647,21.73877 16.96323,49.98772 10.34344,74.791452 -2.37284,8.89077 -7.0686,19.69319 -11.60351,26.69348 -0.97671,1.5077 -1.66606,2.91649 -1.53188,3.13064 0.36603,0.58407 14.82665,0.47004 15.95553,-0.1258 z m -627.01185,-9.00905 c 15.51652,-1.25285 24.31343,-4.2059 36.63354,-12.29759 3.14086,-2.06288 6.98213,-4.32479 8.53615,-5.02646 1.55403,-0.70167 2.8255,-1.40583 2.8255,-1.5648 0,-0.15897 -0.569,-1.43853 -1.26443,-2.84348 -4.58936,-9.27158 -5.62092,-28.618022 -2.21945,-41.624922 0.57637,-2.20398 1.1572,-4.47118 1.29073,-5.03823 0.22069,-0.93712 -0.11877,-1.08644 -3.72786,-1.63982 -10.16078,-1.55795 -19.45121,-6.17763 -26.8638,-13.35809 -5.45402,-5.28324 -9.02512,-10.34671 -12.69857,-18.00535 -4.67348,-9.74358 -8.33615,-23.29505 -9.89032,-36.5931399 -0.82517,-7.06044 -0.94301,-7.28214 -3.56219,-6.70174 -4.28116,0.94869 -8.01618,3.51892 -10.03475,6.90535 l -1.37152,2.30091 -0.25395,16.5298099 -0.25394,16.52982 -1.42768,2.86738 c -2.27873,4.57663 -5.85396,7.32665 -15.58649,11.98889 -4.60906,2.20791 -10.09202,4.84013 -12.18435,5.84939 -6.90152,3.32901 -15.69474,10.50671 -21.61571,17.64441 l -2.88295,3.47538 -6.92581,0.002 c -7.86707,0.002 -9.17028,0.44137 -11.45412,3.86058 -1.1323,1.69507 -2.83602,6.81214 -2.83602,8.51776 0,0.5272 7.69681,0.62501 40.9902,0.52089 l 40.99021,-0.12819 0.60147,-3.75678 c 1.52877,-9.54866 5.51569,-15.03035 10.45646,-14.37676 9.93322,1.31401 13.10162,27.90293 4.47913,37.588412 -5.90485,6.63279 -12.97702,0.97895 -14.93691,-11.941322 l -0.60786,-4.00722 -40.98636,-0.12819 -40.98634,-0.12819 v 1.20246 c 0,0.66135 0.48382,2.74736 1.07516,4.63557 0.81163,2.591642 1.60442,3.955102 3.23443,5.562712 l 2.15927,2.12958 h 7.48138 c 5.93245,0 7.85094,0.17296 9.26636,0.83538 1.0916,0.51088 3.60657,2.99175 6.47431,6.38652 7.63374,9.03666 12.49915,13.08922 20.33582,16.93836 11.96181,5.87529 29.30288,8.37748 47.74126,6.88871 z m -31.5901,-6.04395 c -3.05417,-1.49101 -4.43875,-4.43971 -4.09099,-8.71247 0.744,-9.1413 8.28832,-15.6195 15.96874,-13.71214 2.87472,0.71391 5.2376,3.28627 5.2376,5.70193 0,1.57184 -0.13583,1.73573 -1.43856,1.73573 -1.09802,0 -1.72923,-0.43778 -2.6664,-1.8493 -1.46551,-2.20729 -3.41675,-2.85797 -6.28562,-2.09609 -3.90666,1.0375 -6.87753,5.79749 -6.87753,11.01934 0,6.25746 7.22868,7.36291 11.2602,1.72198 1.14468,-1.60165 1.98743,-2.28418 2.82037,-2.28418 2.68504,0 1.64632,3.1155 -2.13244,6.39597 -3.60607,3.13055 -8.04063,3.91226 -11.79537,2.07923 z m 390.15142,-6.84702 15.73852,-6.38677 -48.47342,-0.12777 c -44.489746,-0.11727 -48.663159,-0.0581 -50.782606,0.7202 -3.547663,1.30275 -29.195959,11.73242 -29.437307,11.97045 -0.117204,0.11559 21.708521,0.21028 48.501602,0.21041 l 48.714701,2.5e-4 z m -50.41567,2.6011 c -1.42305,-0.98303 -1.53433,-3.71203 -0.20001,-4.903 3.22965,-2.88262 7.67156,1.65347 4.49824,4.59363 -1.38769,1.28578 -2.74349,1.38336 -4.29823,0.30937 z M -91.004005,118.4271 c 0.143036,-0.22824 -0.328191,-1.85133 -1.047159,-3.60686 -2.529118,-6.17538 -3.37942,-11.79074 -3.41099,-22.526022 -0.03545,-12.051 0.892319,-17.34936 4.495103,-25.67131 0.355652,-0.8215 -0.421738,-0.87658 -12.371979,-0.87658 -7.01332,0 -12.75148,0.15137 -12.75148,0.33637 0,0.18501 0.57406,1.75159 1.27569,3.48128 2.55219,6.29178 3.04228,9.96807 3.03014,22.73024 -0.0101,10.553832 -0.13032,12.237352 -1.16308,16.278172 -0.63355,2.47882 -1.69348,5.67365 -2.35541,7.09962 -0.66194,1.42598 -1.07179,2.7226 -0.91078,2.88139 0.46402,0.45764 24.920801,0.33512 25.209945,-0.1263 z m -35.752105,-0.27582 c 0,-0.10445 -0.59009,-1.46112 -1.3113,-3.0148 -5.04416,-10.86643 -4.89986,-36.398542 0.26531,-46.942232 0.81164,-1.65682 0.90425,-2.23175 0.41172,-2.55614 -0.34949,-0.23018 -5.28374,-0.35635 -10.96499,-0.28037 l -10.32954,0.13814 -1.17903,1.35287 c -3.30654,3.79407 -5.06033,12.55173 -5.04552,25.19502 0.0146,12.438732 1.68088,21.032382 4.84819,25.003602 l 1.03191,1.29383 h 11.13663 c 6.12514,0 11.13662,-0.0855 11.13662,-0.18992 z m 7.60429,-1.29341 c 5.83661,-8.08408 6.65097,-34.016552 1.47405,-46.939602 -1.22893,-3.06777 -2.4687,-4.31358 -4.06712,-4.08697 -3.73713,0.52984 -7.12011,13.28768 -6.95073,26.21247 0.0672,5.12786 0.0929,5.25974 0.371,1.90187 0.16434,-1.98443 0.52734,-3.82683 0.80668,-4.09421 0.66848,-0.63989 10.72298,-4.56986 11.69158,-4.56986 0.60446,0 0.75162,0.83136 0.75162,4.24613 0,3.85463 -0.10536,4.31298 -1.14275,4.97118 -2.11719,1.34333 -10.53445,4.41584 -11.30177,4.12545 -1.02307,-0.3872 -1.01145,2.272652 0.0337,7.706372 1.96149,10.19796 5.41856,14.56492 8.33376,10.52717 z m 54.865642,1.32697 c 0,-0.086 -0.43444,-1.04398 -0.965424,-2.12884 -4.514687,-9.22403 -5.495922,-29.660742 -2.03074,-42.295222 0.566688,-2.06622 1.459353,-4.71375 1.983699,-5.88338 l 0.953353,-2.12662 -1.181535,-0.29247 c -0.64984,-0.16086 -5.570521,-0.21821 -10.934845,-0.12745 l -9.753314,0.16502 -1.179026,1.35287 c -3.297529,3.78375 -5.051679,12.5325 -5.051679,25.19502 0,12.396782 1.673193,21.015012 4.854356,25.003602 l 1.031911,1.29383 H -75.4228 c 6.125142,0 11.136622,-0.0704 11.136622,-0.15636 z m 7.604298,-1.32697 c 3.084542,-4.27229 4.780621,-13.0759 4.780621,-24.814102 0,-11.73821 -1.696079,-20.54181 -4.780621,-24.81411 -4.1085,-5.69053 -8.873534,5.15159 -9.499986,21.6158 -0.713026,18.739532 4.690746,34.673512 9.499986,28.012412 z m -7.625451,-22.334732 c -0.916744,-1.08942 -0.081,-1.74296 4.683787,-3.6627 4.766705,-1.92052 6.139058,-2.0246 5.911317,-0.44834 -0.129323,0.89512 -1.090862,1.50208 -4.733266,2.98785 -5.334764,2.17609 -5.02567,2.11687 -5.861838,1.12319 z M -203.20489,107.61872 c 1.01921,-1.06583 2.09016,-3.08688 2.85334,-5.38472 1.71878,-5.175042 1.76604,-15.004872 0.0972,-20.208312 -2.73303,-8.5213 -7.28454,-9.61913 -10.60377,-2.55763 -1.87124,3.98097 -2.37568,7.38405 -2.12013,14.30297 0.26144,7.078282 1.35453,10.814722 4.04938,13.841802 1.99347,2.23922 3.58678,2.24086 5.72402,0.006 z m 82.54341,-14.213552 c 2.30468,-1.12324 2.82269,-1.61474 2.96098,-2.80952 0.15607,-1.34833 0.0686,-1.42852 -1.26971,-1.16381 -0.79053,0.15637 -2.52294,0.74366 -3.84979,1.30509 -2.12088,0.89741 -2.41246,1.20456 -2.41246,2.54129 0,1.92531 0.83357,1.94846 4.57098,0.12695 z m -32.28709,-28.10175 c 0.7071,-1.12837 -5.65889,-5.77577 -17.23177,-12.5798 -9.3339,-5.48768 -12.87121,-7.99188 -15.88905,-11.24848 -4.49873,-4.85466 -4.39206,-4.33469 -4.68031,-22.81375 l -0.25395,-16.2793599 -1.40801,-2.36232 c -2.19141,-3.6767 -6.47871,-6.36151 -11.4161,-7.14906 -2.61169,-0.41658 -2.55417,-0.85945 -1.15242,8.87265 3.50034,24.3024499 10.76625,41.0415099 22.45474,51.7308899 6.27155,5.73546 13.60652,9.43065 22.24887,11.20847 5.48469,1.12826 6.93309,1.25096 7.328,0.62076 z m 309.23215,-7.87697 c 16.49765,-6.69625 17.17913,-7.01043 16.10496,-7.42469 -0.41901,-0.16159 -14.36047,-0.23532 -30.98103,-0.16385 l -30.2192,0.12996 -0.25394,3.25587 c -0.23962,3.07221 -0.32555,3.25587 -1.52365,3.25587 -1.19811,0 -1.28404,-0.18366 -1.52366,-3.25587 l -0.25394,-3.25587 -14.594652,-0.1329 c -13.680744,-0.12457 -14.793861,-0.067 -17.775998,0.9192 -3.582361,1.18473 -27.377937,10.73462 -29.337461,11.77402 -1.071223,0.56822 6.335812,0.67664 47.380764,0.69356 l 48.650457,0.02 14.32735,-5.81536 z m -303.59942,92.987972 c -0.29321,-0.4679 10.70766,-19.39097 12.31211,-21.17856 1.15673,-1.28878 3.58488,-1.14323 4.17834,0.25045 0.55046,1.29269 3.05351,17.5973 3.05351,19.89024 0,1.40549 -0.13683,1.52338 -1.76793,1.52338 -1.89059,0 -1.86053,0.049 -2.54663,-4.15228 l -0.30999,-1.89822 -4.14,0.14506 -4.14,0.14505 -1.73086,2.8802 c -1.45746,2.42524 -1.95781,2.88019 -3.16759,2.88019 -0.79019,0 -1.57362,-0.21847 -1.74096,-0.48551 z m 14.07544,-11.03527 c -0.22773,-2.94195 -0.65337,-5.00934 -1.03004,-5.00309 -0.62501,0.0104 -3.72272,5.99913 -3.38327,6.54083 0.17887,0.28544 1.27558,0.45068 2.43713,0.3672 2.07566,-0.14917 2.10957,-0.18185 1.97618,-1.90494 z m 47.115139,10.32383 c 0,-2.00445 4.070105,-19.99714 4.690228,-20.73407 0.447696,-0.53203 1.945913,-0.65159 6.568785,-0.52421 5.609145,0.15456 6.067451,0.24441 7.229457,1.41728 1.921494,1.93947 1.936558,4.47274 0.04297,7.22475 -1.172042,1.70336 -1.21346,1.94282 -0.507885,2.93632 2.009607,2.82967 0.264791,7.59534 -3.563819,9.73398 -1.784435,0.99678 -2.732592,1.12737 -8.238123,1.13466 l -6.22161,0.008 z m 13.389603,-3.4364 c 1.821298,-1.633 2.11348,-3.11825 0.857174,-4.35729 -0.862527,-0.85067 -1.687719,-1.02743 -4.796553,-1.02743 -4.1986,0 -4.125886,-0.0623 -4.672426,4.00113 l -0.337689,2.51062 h 3.846254 c 3.277671,0 4.032069,-0.16661 5.10324,-1.12703 z m 1.238682,-9.76762 c 1.466723,-1.2508 1.821934,-2.86394 0.843192,-3.82923 -0.590285,-0.58217 -1.778407,-0.80413 -4.304295,-0.80413 -1.918924,0 -3.594459,0.16905 -3.723411,0.37568 -0.128958,0.20662 -0.396944,1.44636 -0.595527,2.75497 l -0.361066,2.37929 h 3.556601 c 2.65707,0 3.816578,-0.22171 4.584506,-0.87658 z M -335.81657,106.08123 c -0.16338,-0.41994 -0.16338,-1.1071 0,-1.52704 0.25286,-0.64986 1.56507,-0.74306 8.81537,-0.62613 l 8.51829,0.13739 v 1.25226 1.25226 l -8.51829,0.13739 c -7.2503,0.11693 -8.56251,0.0237 -8.81537,-0.62613 z m 126.78302,-186.715752 c 0,-1.47843 -0.27426,-2.95854 -0.60946,-3.28914 -0.33521,-0.3306 -1.83595,-0.60108 -3.33499,-0.60108 -2.67367,0 -2.72247,-0.0262 -2.56482,-1.37749 0.15155,-1.29906 0.33419,-1.39174 3.20802,-1.62793 l 3.04731,-0.25046 0.15309,-2.9058 c 0.10432,-1.98 0.38955,-2.99529 0.89527,-3.18669 1.4111,-0.53404 2.2529,0.82953 2.2529,3.64931 v 2.69364 h 2.73118 c 2.85908,0 4.24166,0.83022 3.70017,2.22192 -0.19406,0.49877 -1.2235,0.78008 -3.23111,0.88296 l -2.9463,0.15099 -0.25394,3.00542 c -0.23949,2.83432 -0.33346,3.01444 -1.65063,3.16392 -1.37012,0.15548 -1.39669,0.10735 -1.39669,-2.52957 z"
                                   style="fill:#a2a2a2;stroke-width:0.50438255" />
                                <path
                                   inkscape:connector-curvature="0"
                                   id="path3728"
                                   d="m 108.64923,254.0025 c -0.13982,-0.36728 -0.31133,-11.56931 -0.38117,-24.8934 l -0.12702,-24.22561 -3.79142,-0.94953 c -5.776027,-1.44656 -9.763463,-4.30957 -12.122516,-8.70406 l -1.344475,-2.50452 -0.258793,-15.77846 -0.258793,-15.77846 -1.41181,-2.83539 c -2.307223,-4.63367 -6.593869,-7.76153 -13.344528,-9.73719 -2.762746,-0.80855 -7.319166,-0.91046 -53.554282,-1.19783 -50.07269,-0.31121 -50.573795,-0.32425 -54.819928,-1.42638 -5.499294,-1.4274 -10.144548,-3.69526 -13.299783,-6.49309 -2.888386,-2.5612 -4.39383,-4.92196 -6.83644,-10.72052 -2.227455,-5.28781 -3.676046,-6.74293 -7.386039,-7.41933 -1.866556,-0.34031 -18.069749,-0.47174 -46.975083,-0.38103 l -44.12568,0.13847 -2.95246,1.36428 c -1.62386,0.75035 -5.50919,3.03623 -8.63406,5.07972 -10.087,6.59635 -18.01553,9.78813 -29.04433,11.69237 -6.49612,1.12162 -29.8493,1.26719 -35.80594,0.22319 -19.8601,-3.48081 -30.34995,-9.31744 -42.21231,-23.48726 -5.81177,-6.94228 -5.14083,-6.60402 -13.14722,-6.62831 -3.77105,-0.0115 -7.71783,-0.25673 -8.77062,-0.54508 -3.61944,-0.99132 -7.38574,-6.15572 -8.24253,-11.302272 -0.17788,-1.0685 -0.44046,-2.56259 -0.58349,-3.3202 l -0.26007,-1.37749 h -16.88917 c -9.28904,0 -17.03955,-0.14832 -17.22335,-0.32959 -0.1838,-0.18128 -0.0796,-0.63209 0.23148,-1.00181 0.45222,-0.53739 3.91271,-0.67221 17.25403,-0.67221 h 16.68837 l 0.29293,-1.37749 c 1.33507,-6.27803 2.41195,-8.85184 4.73418,-11.31505 2.37571,-2.51993 3.54712,-2.83547 10.52622,-2.83547 h 6.44248 l 5.64503,-5.82999 c 5.61237,-5.79627 11.4515,-10.64051 16.31699,-13.53686 1.4002,-0.83351 6.03094,-3.1104 10.29055,-5.05974 13.74004,-6.28791 17.77841,-9.1095 20.08464,-14.03301 1.0479,-2.23712 1.12098,-3.25156 1.36129,-18.89386 l 0.25394,-16.5298199 1.37728,-2.31059 c 2.48163,-4.16333 7.54812,-7.52651 12.42495,-8.24778 1.1703,-0.17308 2.22261,-0.57314 2.33845,-0.8890101 0.11585,-0.31587 0.0143,-3.77045 -0.22556,-7.67685 -0.2399,-3.9064 -0.37645,-16.19106 -0.30343,-27.29924 0.11544,-17.5605 0.23221,-20.19671 0.8946,-20.19671 0.66615,0 0.73989,2.23315 0.58712,17.78208 -0.17918,18.23741 0.51436,36.21207 1.43965,37.31165 0.2862,0.3401101 1.67901,0.7537201 3.09514,0.9191301 5.23904,0.61196 11.02704,4.33412 13.32572,8.56954 1.05365,1.94139 1.11798,2.80782 1.35991,18.3171499 0.29163,18.69554 0.19726,18.26515 5.05793,23.06658 2.99182,2.95537 5.90106,4.91236 18.57872,12.49757 4.37433,2.61722 9.28283,5.94388 10.90778,7.39258 l 2.95446,2.634 46.13295,-0.12948 c 43.000445,-0.12069 46.244438,-0.18958 47.774972,-1.01454 1.778483,-0.95861 2.382329,-1.92211 4.911848,-7.83738 0.913219,-2.13556 2.406261,-4.952 3.317875,-6.25878 3.18906,-4.57141 9.598998,-8.20221 17.837152,-10.10354 3.405719,-0.78603 8.783801,-0.90393 54.314627,-1.19073 46.932962,-0.29563 50.733709,-0.3831 53.327994,-1.22719 6.276964,-2.04234 10.733762,-5.51788 12.769484,-9.95802 1.153942,-2.51687 1.206589,-3.17476 1.451512,-18.1395999 0.237919,-14.53678 0.323808,-15.67667 1.345476,-17.8567901 2.22014,-4.73754 7.252678,-8.27805 13.50551,-9.50145 l 2.91588,-0.57052 0.13144,-26.35836 c 0.11488,-23.0381 0.22738,-26.35835 0.89327,-26.35835 0.66588,0 0.77838,3.32103 0.89326,26.36539 l 0.13145,26.36539 1.13827,0.30088 c 0.62607,0.16549 1.52965,0.30397 2.00803,0.30773 0.47837,0.004 2.12428,0.46977 3.65759,1.03557 3.60852,1.33156 7.7323,4.99645 9.25804,8.22783 1.15041,2.4365401 1.18749,2.9288701 1.19226,15.8454701 0.005,7.3319399 0.23693,14.5370799 0.52043,16.0114099 1.49796,7.79016 7.17145,12.80066 16.71711,14.76362 3.17017,0.65192 10.87693,0.73598 55.81963,0.60885 48.96266,-0.13851 52.31192,-0.20346 54.93499,-1.06522 4.27843,-1.40562 5.80437,-2.5115 13.20503,-9.56979 11.18085,-10.66366 19.52069,-16.5741399 31.12074,-22.0554299 29.35,-13.86853 63.06244,-13.35728 92.53596,1.40331 28.43392,14.2399499 46.92157,38.7697099 52.92605,70.2233499 1.05914,5.54809 1.46515,21.99177 0.69524,28.155952 -5.29968,42.43067 -37.12161,75.93264 -80.27183,84.5099 -30.43561,6.04988 -59.61811,-0.49009 -84.48937,-18.93457 -2.27517,-1.68726 -7.59253,-6.37306 -11.81637,-10.41291 -7.88919,-7.54551 -9.71356,-8.81685 -14.77876,-10.29885 -2.67026,-0.78127 -7.52219,-0.87353 -53.63379,-1.01988 -55.75685,-0.17696 -56.11964,-0.16071 -62.53835,2.80167 -4.40809,2.03443 -7.43321,4.9 -9.21147,8.72562 l -1.45463,3.12939 -0.26481,15.77846 c -0.29539,17.60431 -0.2252,17.24214 -4.07985,21.0438 -2.48188,2.44777 -5.40197,3.96467 -9.64388,5.00977 l -3.30126,0.81334 -0.25394,24.71884 c -0.19666,19.1441 -0.39707,24.76586 -0.88855,24.92732 -0.34902,0.11466 -0.74898,-0.092 -0.88875,-0.4593 z m -0.50819,-85.61268 v -34.27015 l -36.05988,-0.25046 c -31.431448,-0.2183 -36.059881,-0.34588 -36.059881,-0.99396 0,-0.50339 5.248739,-2.89094 16.25234,-7.3929 8.938788,-3.65717 18.097297,-7.32356 20.352243,-8.14753 l 4.099902,-1.49814 h 52.626356 c 37.34834,0 52.72539,0.15809 52.9676,0.54455 0.18766,0.29951 0.13535,0.74761 -0.1163,0.99579 -0.25166,0.24819 -9.31773,4.05726 -20.14686,8.46462 l -19.68931,8.01338 -15.84339,0.13232 -15.84339,0.13233 v 34.31189 34.31189 l 1.75622,-0.17121 c 4.84771,-0.4726 9.68248,-3.47507 12.08417,-7.50444 l 1.39618,-2.34242 0.25394,-15.79099 0.25394,-15.791 1.66927,-3.3422 c 2.89393,-5.79404 8.40678,-9.51996 16.46621,-11.12882 5.61986,-1.12186 102.8277,-1.17958 108.73649,-0.0646 6.27503,1.18411 9.21569,3.00779 17.0255,10.55863 10.72964,10.3738 17.55664,15.34438 28.52971,20.77172 14.842,7.34094 28.55989,10.5895 44.94788,10.64421 9.05708,0.0303 14.9965,-0.58576 23.53964,-2.44141 19.75538,-4.29105 36.79723,-13.68113 50.90106,-28.0466 5.30639,-5.40484 6.82934,-7.37243 6.32694,-8.17418 -0.20798,-0.33187 -3.65698,-0.52294 -9.43967,-0.52294 -5.80401,0 -9.11197,-0.1839 -9.11197,-0.50656 0,-0.27862 0.88707,-1.80011 1.9713,-3.3811 10.61994,-15.48567 16.33361,-34.17191 16.30379,-53.320832 -0.0279,-18.07634 -4.75325,-34.78278 -14.22979,-50.31209 -1.38693,-2.27272 -2.52165,-4.25588 -2.52165,-4.40702 0,-0.15114 4.05674,-0.27825 9.01497,-0.28246 4.95824,-0.004 9.34231,-0.21195 9.74232,-0.46162 0.58762,-0.36675 0.29498,-1.0076 -1.52366,-3.33613 C 399.4806,1.0047981 352.44455,-12.683502 312.38279,0.6818381 c -15.95442,5.32269 -28.1323,12.9470199 -42.07249,26.3407099 -5.78096,5.55432 -8.19956,7.52723 -10.60069,8.64719 -5.95415,2.77713 -5.95831,2.77732 -61.41887,2.77732 -46.95468,0 -51.31956,-0.0702 -54.50212,-0.87655 -7.85841,-1.99106 -13.27384,-5.91874 -15.90383,-11.53465 l -1.45961,-3.11681 -0.2541,-15.7784599 c -0.28203,-17.5149201 -0.22702,-17.2211301 -3.90117,-20.8447701 -2.20224,-2.17195 -6.55452,-4.24366 -9.63449,-4.58604 l -2.21626,-0.24638 0.13068,32.99996 0.13063,32.99997 35.80594,0.25045 c 30.49838,0.21332 35.80594,0.35604 35.80594,0.9628 0,0.46598 -6.93833,3.5373 -20.06149,8.88041 l -20.06148,8.16806 -52.917104,0.0106 c -37.829807,0.008 -53.015187,-0.14589 -53.26112,-0.53834 -0.189208,-0.30194 -0.03129,-0.83184 0.350944,-1.17757 0.560624,-0.5071 14.332761,-6.20855 36.173018,-14.97507 2.41045,-0.96754 3.894914,-1.06965 19.119639,-1.31518 l 16.506283,-0.26619 0.13063,-33.00461 0.13068,-33.00462 -2.50352,0.29243 c -4.65604,0.54386 -9.873198,3.86111 -11.873887,7.54977 -1.066184,1.9657401 -1.133905,2.8181701 -1.397742,17.5938401 -0.259722,14.5452499 -0.349186,15.7070299 -1.413623,18.3566599 -2.487065,6.19089 -8.374547,10.45942 -17.317987,12.55585 -1.53902,0.36076 -19.281482,0.65211 -52.602996,0.86379 -49.354175,0.31352 -50.35221,0.3392 -54.162719,1.39337 -9.780776,2.70583 -14.959371,7.01428 -17.996674,14.97271 -1.691016,4.43085 -2.401192,5.72134 -4.035619,7.3333 l -1.376192,1.35727 1.535049,2.3891 c 3.303618,5.14161 4.660089,11.3976 5.025325,23.17659 0.227152,7.32569 0.107753,10.39581 -0.570015,14.657192 -1.00442,6.31517 -2.801955,11.86174 -4.595908,14.18141 -0.701695,0.90732 -1.275809,1.79794 -1.275809,1.97914 0,0.18121 0.780112,1.22833 1.733576,2.32693 0.953469,1.0986 2.339001,3.6139 3.07896,5.58957 1.837917,4.90716 3.294314,7.22634 6.250747,9.95372 3.659778,3.37623 7.178598,5.00271 14.605446,6.75097 3.121902,0.73488 9.406687,0.86707 53.815375,1.13192 l 50.28068,0.29987 4.097327,1.3613 c 8.288455,2.75377 13.002964,7.71023 14.394266,15.13301 0.308906,1.64806 0.559055,8.84507 0.565272,16.26347 0.0099,11.79114 0.116565,13.53545 0.936389,15.31079 1.008879,2.18475 4.113843,5.20065 6.767389,6.57323 1.78431,0.92298 6.41628,2.18535 7.2677,1.98072 0.33241,-0.0799 0.50788,-11.96077 0.50788,-34.39222 z m 78.29494,-30.88574 c -0.28711,-0.45816 3.48791,-18.34344 4.22967,-20.03946 0.47864,-1.09441 0.70551,-1.12703 7.83815,-1.12703 4.03993,0 7.47379,0.20506 7.63083,0.4557 0.15709,0.25063 0.14612,0.81415 -0.0244,1.25226 -0.26029,0.66897 -1.32014,0.79656 -6.61673,0.79656 -6.2764,0 -6.30916,0.006 -6.79434,1.26462 -0.26812,0.69554 -0.54816,2.21703 -0.62226,3.3811 l -0.13475,2.11647 5.32651,0.14407 c 5.56576,0.15053 6.71445,0.52688 5.61091,1.83832 -0.51311,0.60973 -1.81736,0.77258 -6.18726,0.77258 -6.2313,0 -5.99001,-0.15834 -6.77337,4.44489 -0.27558,1.6195 -0.19284,2.30328 0.31733,2.62208 0.37954,0.23718 3.27804,0.4347 6.44105,0.43892 5.20121,0.007 5.73464,0.0915 5.58035,0.88425 -0.15212,0.78147 -1.00612,0.89156 -7.87142,1.01465 -4.23546,0.0759 -7.81311,-0.0411 -7.95029,-0.25998 z m -0.0864,-68.837162 c -0.14896,-0.3829 0.70936,-5.19765 1.90747,-10.69943 l 2.17832,-10.00324 5.44347,-0.14209 c 6.19437,-0.1617 7.89503,0.38126 9.54286,3.04661 2.78921,4.51157 -0.2643,13.71539 -5.56744,16.78126 -2.0511,1.18578 -2.96869,1.36609 -7.77959,1.52871 -4.31611,0.14589 -5.51071,0.0391 -5.72509,-0.51182 z m 12.50089,-3.0652 c 4.6464,-3.08664 6.35716,-12.34163 2.71618,-14.69448 -1.42203,-0.91896 -7.25286,-1.47171 -8.27148,-0.78411 -0.68605,0.46307 -3.59456,12.7036 -3.62305,15.24752 l -0.0152,1.37748 h 3.73403 c 3.04975,0 4.05028,-0.21008 5.45977,-1.14641 z m 228.08307,81.666662 c 1.04584,-0.82231 4.47671,-5.95856 4.47671,-6.70192 0,-0.80622 -1.22629,-1.18731 -3.82072,-1.18731 -1.21766,0 -2.34811,-0.21409 -2.51211,-0.47577 -0.54105,-0.8634 1.64357,-1.52784 5.02335,-1.52784 h 3.32827 l 1.75419,-3.43551 c 2.10006,-4.11283 1.86074,-4.57895 -2.3509,-4.57895 -2.26299,0 -2.94574,-0.17193 -2.94574,-0.74181 0,-0.88592 1.25128,-1.21061 5.33107,-1.38332 l 3.04564,-0.12893 1.1627,-3.22335 c 0.63948,-1.77285 1.04742,-3.51975 0.90648,-3.88201 -0.17852,-0.45874 -1.35149,-0.65865 -3.86466,-0.65865 -3.16265,0 -3.58745,-0.10829 -3.43869,-0.87658 0.14094,-0.72799 0.82837,-0.90125 4.05522,-1.02208 2.27639,-0.0852 4.07974,-0.3964 4.35456,-0.75135 0.74679,-0.96449 1.79304,-6.42828 1.32014,-6.89416 -0.23611,-0.23259 -2.0291,-0.49072 -3.98446,-0.57362 -2.75365,-0.11675 -3.5552,-0.32013 -3.5552,-0.90209 0,-0.59053 0.84111,-0.78264 3.92961,-0.89753 4.58134,-0.17043 4.76245,-0.34543 5.03259,-4.86286 l 0.17974,-3.005422 -3.80914,-0.25045 c -2.93446,-0.19295 -3.80914,-0.42299 -3.80914,-1.00181 0,-0.57882 0.87468,-0.80886 3.80914,-1.00181 l 3.80914,-0.25045 0.31677,-2.50452 c 0.17421,-1.37748 0.20458,-3.11538 0.0675,-3.86198 -0.24236,-1.31994 -0.35638,-1.36149 -4.12591,-1.50271 -3.04193,-0.11397 -3.87669,-0.30704 -3.87669,-0.8966 0,-0.57883 0.87468,-0.80887 3.80914,-1.00181 l 3.80914,-0.25045 0.1478,-1.75316 c 0.0813,-0.96424 -0.0422,-2.65479 -0.27462,-3.75678 l -0.42235,-2.00361 -4.03754,-0.25046 c -3.27896,-0.20339 -4.06852,-0.41107 -4.2024,-1.10537 -0.14221,-0.73725 0.38142,-0.87514 3.80421,-1.00181 l 3.96913,-0.14688 -0.11509,-1.90661 c -0.0633,-1.04863 -0.3578,-2.79553 -0.65446,-3.882 l -0.53932,-1.9754 h -3.98132 c -2.71104,0 -4.16182,-0.21447 -4.547,-0.67221 -0.89042,-1.05819 -0.15388,-1.3314 3.58923,-1.3314 4.25314,0 4.51638,-0.39543 3.12492,-4.69426 l -0.99363,-3.06975 -3.27449,-0.12812 c -4.29407,-0.16802 -5.55992,-0.48315 -5.55992,-1.38413 0,-0.57943 0.72612,-0.74181 3.3172,-0.74181 2.51622,0 3.38953,-0.18598 3.61686,-0.77025 0.3702,-0.95134 -1.05346,-4.73703 -2.43074,-6.46393 -0.93929,-1.17768 -1.34026,-1.28118 -4.96342,-1.28118 -4.1866,0 -4.95249,-0.25213 -4.04429,-1.3314 0.36502,-0.43377 1.71467,-0.67222 3.80472,-0.67222 1.78151,0 3.2391,-0.15082 3.2391,-0.33517 0,-0.52384 -3.07622,-5.82553 -3.94714,-6.8027 -0.68397,-0.76742 -1.81137,-0.87658 -9.05271,-0.87658 -5.0949,0 -8.39484,0.19695 -8.59276,0.51285 -0.1768,0.28207 0.69128,2.25438 1.92905,4.38291 5.86765,10.09043 9.74907,21.10987 11.86111,33.67381 1.20643,7.17679 1.20542,22.822722 0,29.782252 -2.37563,13.69377 -6.60084,25.21679 -13.0486,35.58639 -1.43467,2.30728 -2.45847,4.43438 -2.27517,4.7269 0.50093,0.79934 16.10058,0.71348 17.12783,-0.0943 z m -626.82516,-8.90561 c 15.22076,-1.32101 23.69334,-4.19094 35.87381,-12.15162 3.59406,-2.34892 7.85668,-4.84622 9.4725,-5.54953 l 2.93785,-1.27876 -1.55266,-3.03351 c -5.03861,-9.84422 -5.89777,-32.150862 -1.72304,-44.736032 0.43749,-1.31886 0.67814,-2.69937 0.53479,-3.0678 -0.14335,-0.36844 -1.36442,-0.82692 -2.71349,-1.01886 -8.93586,-1.27134 -18.13443,-5.15073 -24.83832,-10.47527 -12.85192,-10.20757 -21.85511,-29.66162 -25.12589,-54.2919699 -1.39494,-10.50443 -1.37091,-10.43522 -3.55206,-10.23092 -4.48039,0.41966 -10.58401,4.62741 -12.30064,8.47988 -0.41751,0.93696 -0.6956,6.62857 -0.87475,17.9034599 l -0.26266,16.52982 -1.34143,2.50554 c -1.72304,3.21832 -5.89388,7.09355 -10.086,9.37113 -1.81569,0.98646 -6.71072,3.32695 -10.87785,5.20108 -11.8606,5.33421 -18.82431,10.32857 -26.71771,19.1619 -1.80908,2.0245 -3.59125,3.99681 -3.96037,4.38291 -0.50801,0.53136 -2.25907,0.70199 -7.20431,0.70199 -3.59324,0 -7.06746,0.20034 -7.72047,0.4452 -3.09477,1.16046 -6.11701,6.19714 -6.83995,11.39905 l -0.30393,2.18693 41.56678,-0.12816 41.56678,-0.12818 0.64017,-4.06884 c 1.48622,-9.44629 5.7866,-15.19446 10.49542,-14.02887 4.55457,1.12741 8.42719,10.13457 8.42719,19.60043 0,10.212042 -4.59846,19.785692 -9.50356,19.785692 -4.54316,0 -8.15976,-5.62936 -9.48251,-14.759852 l -0.58297,-4.02404 h -41.36724 -41.36724 l 0.11365,2.75497 c 0.14764,3.57903 2.72551,8.755242 5.16729,10.375592 1.59029,1.05531 2.27531,1.14519 8.72796,1.14519 3.85123,0 7.64562,0.24043 8.43198,0.53427 1.95283,0.72974 3.08637,1.82935 8.62809,8.36985 10.54121,12.44102 21.94564,18.60056 39.52714,21.34862 8.43378,1.31823 18.75796,1.60711 28.18765,0.78871 z m -31.17437,-6.4865 c -3.54769,-1.11531 -5.20765,-4.34718 -4.69883,-9.1484 0.81745,-7.71341 5.92322,-12.90203 12.69603,-12.90203 4.51179,0 7.43272,2.01227 7.43272,5.12049 0,2.01387 -1.66225,1.84085 -2.94702,-0.30674 -2.70969,-4.52944 -9.87934,-2.94151 -12.87605,2.85178 -1.33256,2.57612 -1.80381,7.30167 -0.93456,9.37138 1.20893,2.87849 5.37628,3.88409 8.44594,2.03803 0.87565,-0.5266 2.34233,-1.8782 3.25929,-3.00355 1.6458,-2.01982 2.67072,-2.50917 3.26593,-1.55934 0.32918,0.52531 -0.81182,2.55653 -2.49735,4.44581 -2.342,2.62511 -7.80853,4.14184 -11.1461,3.09257 z m 389.70924,-6.63362 c 8.95661,-3.64262 16.28474,-6.79832 16.28474,-7.01265 0,-0.21433 -22.12085,-0.3897 -49.15754,-0.3897 H 76.612973 l -5.059278,1.91543 c -10.384108,3.93139 -28.168075,11.32471 -28.168075,11.7103 0,0.21976 22.268897,0.39957 49.486438,0.39957 h 49.486462 z m -50.93138,1.6997 c -0.98322,-1.0715 -1.10257,-3.13336 -0.23109,-3.99283 1.50527,-1.4846 4.97728,-0.0419 4.97728,2.0681 0,1.1184 -1.79985,2.84075 -2.96859,2.84075 -0.5154,0 -1.31532,-0.41221 -1.7776,-0.91602 z m -197.674339,-8.0554 c 0.157185,-0.25084 -0.288911,-1.58454 -0.991322,-2.96378 -5.387062,-10.57797 -5.540128,-35.333392 -0.292694,-47.338182 0.581991,-1.33144 1.058169,-2.62753 1.058169,-2.88019 0,-0.26701 -5.636042,-0.45938 -13.458974,-0.45938 -7.40243,0 -13.45897,0.0847 -13.45897,0.18813 0,0.10347 0.54045,1.39955 1.20098,2.88019 2.67372,5.99334 3.85776,13.27663 3.85776,23.73003 0,10.556272 -1.23248,18.065262 -3.88364,23.661442 -0.68358,1.44293 -1.09986,2.85172 -0.92507,3.13065 0.40502,0.64632 26.489707,0.69587 26.893761,0.0511 z m -36.285731,-0.5657 c 0,-0.28648 -0.44573,-1.38255 -0.99051,-2.43573 -5.1899,-10.03319 -5.34142,-35.918882 -0.27542,-47.052242 0.75433,-1.65777 1.21999,-3.25592 1.03481,-3.55145 -0.46996,-0.74995 -20.62387,-0.72982 -22.29756,0.0223 -0.6849,0.30777 -1.82531,1.61065 -2.53424,2.89528 -6.40944,11.61436 -5.58577,42.045222 1.34024,49.515682 1.02386,1.10435 1.27312,1.12704 12.38379,1.12704 7.51028,-2e-5 11.33889,-0.17589 11.33889,-0.52088 z m 7.27974,-0.97404 c 3.44206,-4.03443 5.13603,-12.50466 5.11053,-25.553902 -0.0219,-11.21817 -1.04173,-17.42894 -3.75412,-22.86284 -1.61433,-3.2341 -2.68767,-4.00891 -4.82171,-3.48066 -3.59789,0.89059 -6.85238,13.27803 -6.85875,26.10619 -0.009,18.758932 5.20664,31.789302 10.32405,25.791212 z m -8.18974,-23.116732 0.14817,-4.15537 5.07886,-2.12567 c 2.79337,-1.16912 5.37379,-2.13497 5.73425,-2.14632 0.49517,-0.0156 0.61934,0.98132 0.50789,4.07776 l -0.14751,4.09841 -4.72566,1.88735 c -7.49897,2.99498 -6.76761,3.1764 -6.596,-1.63616 z m 5.52038,0.26791 c 1.79402,-0.71618 3.54754,-1.53271 3.89671,-1.8145 0.74828,-0.60387 0.85444,-3.70302 0.14174,-4.13745 -0.27122,-0.16531 -2.21388,0.40593 -4.31703,1.26944 -3.79458,1.55797 -3.82391,1.58439 -3.82391,3.4434 0,1.54211 0.29838,2.54126 0.75891,2.54126 0.045,0 1.54957,-0.58596 3.34358,-1.30215 z m 57.859558,23.903342 c 0,-0.2422 -0.590813,-1.71313 -1.312915,-3.26873 -2.581313,-5.56081 -3.462683,-11.43782 -3.462683,-23.089232 0,-11.70374 0.858753,-17.38468 3.508063,-23.20697 0.755216,-1.65971 1.221597,-3.25944 1.036412,-3.55497 -0.483645,-0.77178 -20.628355,-0.72781 -22.356604,0.0488 -1.527405,0.68637 -3.937028,5.24176 -5.051166,9.54923 -1.332987,5.15357 -1.96729,12.86284 -1.680096,20.41977 0.397207,10.451842 2.352298,18.617182 5.279024,22.047572 l 1.275408,1.4949 h 11.382276 c 6.260254,2e-5 11.382281,-0.19815 11.382281,-0.44036 z m 7.279738,-1.05452 c 3.384555,-3.96702 5.135608,-12.6997 5.124003,-25.553902 -0.01188,-13.15285 -1.897623,-21.78033 -5.550494,-25.39406 -1.999612,-1.97819 -3.341055,-1.77107 -5.115724,0.78987 -5.621187,8.11166 -6.38909,35.735572 -1.313174,47.238922 2.017296,4.57173 4.531914,5.6425 6.855389,2.91917 z m -7.200117,-23.337672 c 0.182443,-0.93433 6.767267,-4.10821 8.681407,-4.18444 2.15407,-0.0858 0.56389,1.4005 -3.047314,2.84823 -6.146483,2.46411 -5.840147,2.39146 -5.634093,1.33621 z M -202.80887,107.89151 c 1.04147,-1.13694 2.26937,-3.35669 2.97865,-5.38472 1.03781,-2.967362 1.20685,-4.397012 1.20753,-10.212572 0.001,-8.76789 -1.41362,-13.85121 -4.68739,-16.84354 -7.25639,-6.63254 -13.63401,13.88239 -8.65308,27.834392 2.3102,6.47106 5.82575,8.24008 9.15429,4.60644 z m 50.40401,-42.144312 c 0.94138,-1.50225 -5.03344,-6.12071 -17.36374,-13.42194 -13.77105,-8.15435 -18.46699,-12.28432 -19.94819,-17.54398 -0.29837,-1.05951 -0.52054,-7.99987 -0.52217,-16.31222 -0.002,-9.7209799 -0.20093,-15.1202099 -0.6066,-16.4556099 -0.78013,-2.56804 -4.24639,-6.35414 -7.10762,-7.76346 -3.22981,-1.59087 -7.38566,-2.47445 -8.13985,-1.73062 -1.31584,1.29774 2.07492,20.8307999 5.49448,31.6519599 6.39033,20.22213 18.11384,33.93591 33.47492,39.15786 6.97435,2.3709 14.02269,3.52881 14.71877,2.41801 z m 308.25113,-7.58036 c 18.14727,-7.35962 19.21184,-7.83655 18.83489,-8.43805 -0.37878,-0.60452 -62.63083,-0.71897 -63.59104,-0.11691 -0.33333,0.20902 -0.67615,1.72706 -0.76183,3.37343 -0.11747,2.2586 -0.34272,2.9934 -0.91754,2.9934 -0.57971,0 -0.79794,-0.74763 -0.91293,-3.12708 -0.13352,-2.76274 -0.28406,-3.15999 -1.29221,-3.40953 -0.62755,-0.15535 -7.873094,-0.21331 -16.101212,-0.1288 -12.664129,0.13008 -15.232984,0.28128 -16.737763,0.9852 -0.97768,0.45735 -8.34837,3.47645 -16.379312,6.70913 -8.030942,3.23268 -14.601713,6.07053 -14.601713,6.30634 0,0.23581 22.210135,0.42874 49.355851,0.42874 H 142.0973 Z m -302.40038,91.640902 c 0.005,-0.36353 2.70768,-5.1691 6.00541,-10.67904 5.03001,-8.40424 6.20136,-10.04232 7.27133,-10.16862 0.70149,-0.0828 1.50406,0.14261 1.7835,0.5009 0.48389,0.62047 3.21413,17.45 3.21413,19.81232 0,0.86454 -0.29235,1.12573 -1.26004,1.12573 -1.31059,0 -1.38638,-0.15391 -2.03497,-4.13245 l -0.30622,-1.87839 h -4.52535 -4.52535 l -1.70357,2.88019 c -1.12666,1.90482 -2.08029,2.93441 -2.81598,3.04026 -0.66772,0.0961 -1.1086,-0.10415 -1.10289,-0.5009 z m 13.6173,-8.57311 c 0.37558,-0.44633 0.3982,-1.65877 0.0724,-3.882 -0.26057,-1.77813 -0.47836,-3.40202 -0.48397,-3.60864 -0.006,-0.20663 -0.2959,-0.37329 -0.64507,-0.37036 -0.79815,0.007 -5.09838,7.37013 -4.68727,8.02617 0.4531,0.72306 5.10914,0.58917 5.74391,-0.16517 z m 47.319465,8.43772 c 0,-0.94545 4.084935,-19.9409 4.394476,-20.43486 0.368044,-0.58732 9.990141,-0.44349 11.7928,0.17628 3.116879,1.07161 3.605373,4.79903 1.01087,7.71338 l -1.593623,1.79008 1.1542,1.2117 c 2.448329,2.5703 0.311227,7.79562 -3.918297,9.58044 -2.371059,1.00056 -12.840426,0.97037 -12.840426,-0.037 z m 11.656291,-1.93133 c 2.078638,-0.70912 3.829681,-3.30641 3.391076,-5.02993 -0.161884,-0.63611 -0.881933,-1.42062 -1.600119,-1.74335 -1.731606,-0.77813 -8.192267,-0.77217 -8.681163,0.008 -0.886082,1.414 -1.669806,6.12296 -1.126515,6.76858 0.689089,0.81889 5.612537,0.81686 8.016721,-0.003 z m 3.199364,-11.36064 c 2.883623,-3.14888 1.207752,-5.01568 -4.50267,-5.01568 -4.030697,0 -3.958573,-0.0596 -4.537532,3.74811 -0.461485,3.0351 0.05423,3.39805 4.34226,3.05603 2.863673,-0.2284 3.486386,-0.46547 4.697942,-1.78846 z m -264.3844,-30.38256 c -0.19305,-0.1904 -0.351,-0.6523 -0.351,-1.02645 0,-0.55084 1.57035,-0.65409 8.25315,-0.54265 6.93551,0.11566 8.25314,0.25759 8.25314,0.88899 0,0.62979 -1.27855,0.7736 -7.90215,0.88881 -4.34618,0.0756 -8.06009,-0.0183 -8.25314,-0.2087 z m 126.62043,-187.129782 c 0,-1.48033 -0.27426,-2.96201 -0.60947,-3.2926 -0.3352,-0.3306 -1.83753,-0.60109 -3.33849,-0.60109 -2.32475,0 -2.70405,-0.12986 -2.56036,-0.87658 0.13147,-0.68323 0.83985,-0.93182 3.21153,-1.12703 l 3.04284,-0.25045 0.25395,-3.00542 c 0.1881,-2.22624 0.45145,-3.00543 1.01577,-3.00543 0.57913,0 0.79794,0.74521 0.91242,3.10735 l 0.15059,3.10735 3.15067,0.14853 c 2.39506,0.1129 3.15066,0.32871 3.15066,0.89988 0,0.55656 -0.79005,0.81628 -3.04731,1.0018 l -3.04732,0.25046 -0.25394,3.00101 c -0.19793,2.33907 -0.44999,3.03772 -1.14274,3.16738 -0.75713,0.14171 -0.8888,-0.23237 -0.8888,-2.52516 z"
                                   style="fill:#5d5d5d;stroke-width:0.50438255" />
                                <path
                                   inkscape:connector-curvature="0"
                                   id="path3726"
                                   d="M 108.90287,229.30089 V 204.5157 l -1.39669,-0.29814 c -7.742865,-1.65281 -11.946228,-4.17663 -14.55154,-8.73721 l -1.573825,-2.75497 -0.253943,-15.77846 -0.253943,-15.77846 -1.407082,-2.82585 c -2.443534,-4.90737 -7.397212,-8.49819 -14.200671,-10.29377 -2.837476,-0.74887 -8.656484,-0.87427 -53.464696,-1.15212 -49.828488,-0.30898 -50.319218,-0.3218 -54.565985,-1.42502 -9.398967,-2.44165 -14.945403,-6.5639 -18.089988,-13.44492 -3.664257,-8.01817 -4.473776,-9.29384 -6.593752,-10.39061 -1.994091,-1.03165 -2.420583,-1.0409 -47.975635,-1.0409 h -45.96365 l -3.32841,1.55555 c -1.83062,0.85555 -5.71595,3.13796 -8.63405,5.072 -9.4633,6.27204 -17.42882,9.50063 -28.41445,11.51693 -6.95133,1.27585 -30.59843,1.25483 -37.58353,-0.0334 -18.70888,-3.4504 -29.15876,-9.46823 -40.64662,-23.40743 -2.17366,-2.63749 -4.53687,-5.17331 -5.25156,-5.63517 -1.06028,-0.68515 -2.61447,-0.83971 -8.44403,-0.83971 -8.14637,0 -9.56272,-0.38031 -12.12184,-3.25493 -2.11653,-2.37744 -3.46857,-5.44514 -4.09755,-9.297082 -0.26795,-1.64096 -0.62737,-3.20727 -0.79871,-3.48068 -0.1959,-0.31262 -6.521,-0.49712 -17.04177,-0.49712 -10.81491,0 -16.73025,-0.17711 -16.73025,-0.50091 0,-0.3238 5.91534,-0.5009 16.73025,-0.5009 11.33915,0 16.83852,-0.17277 17.06624,-0.53616 0.18479,-0.29489 0.63775,-1.95864 1.00658,-3.69721 1.1976,-5.64525 4.41017,-10.36013 7.51755,-11.03301 0.60698,-0.13144 4.03015,-0.30043 7.60705,-0.37553 l 6.50347,-0.13655 1.82498,-2.25407 c 3.25265,-4.0174 11.52635,-11.70604 15.40982,-14.32014 4.53524,-3.05282 5.11997,-3.3625 17.75347,-9.40229 11.27165,-5.38872 14.31033,-7.62704 16.60164,-12.22897 l 1.4283,-2.86863 0.25395,-16.571 0.25394,-16.5709899 1.53376,-2.46334 c 2.04136,-3.27856 6.83139,-6.47178 10.97396,-7.31564 1.72285,-0.35096 3.23694,-0.96064 3.45781,-1.39235 0.2161,-0.4224001 0.21357,-3.3601701 -0.006,-6.5283901 -0.54488,-7.87599 -0.57438,-48.58764 -0.0352,-48.58764 0.23881,0 0.41022,10.08694 0.38092,22.41543 -0.0498,20.96039 0.31023,31.23787 1.14082,32.56331 0.19316,0.3082301 1.98247,0.8958701 3.97626,1.3058801 6.15059,1.2648 10.37007,4.09568 12.55749,8.42491 l 1.31785,2.60824 V 17.166118 c 0,18.65797 0.0145,18.721 5.54109,24.03594 3.10465,2.98577 6.20774,5.13208 15.12003,10.458 6.16752,3.68567 12.58754,7.90819 14.2667,9.38338 l 3.05303,2.68216 44.62225,-0.0132 c 24.542242,-0.007 45.618308,-0.20299 46.835705,-0.435 3.990041,-0.76038 5.22268,-2.21929 8.282808,-9.80323 1.35449,-3.35685 2.20011,-4.58241 5.21016,-7.55108 2.891317,-2.85156 4.337343,-3.84623 7.402382,-5.09183 8.359102,-3.39705 6.186987,-3.26968 61.708107,-3.61836 48.627146,-0.30537 50.391297,-0.34925 53.644325,-1.33426 6.440153,-1.95007 10.722614,-5.2893 13.087091,-10.20462 1.318679,-2.74128 1.326551,-2.83212 1.584984,-18.2829799 0.289926,-17.33365 0.375861,-17.7998101 3.955119,-21.4547601 2.643392,-2.69927 5.440829,-4.1999 9.798789,-5.25633 l 3.76237,-0.91206 0.13144,-26.38593 c 0.084,-16.85208 0.31171,-26.38594 0.63036,-26.38594 0.31864,0 0.54638,9.53386 0.63038,26.38594 l 0.13144,26.38594 3.73708,0.90593 c 5.67389,1.37543 9.71214,4.14678 11.9249,8.18378 1.03786,1.8934301 1.11405,2.8575801 1.38561,17.5316201 0.27223,14.7094499 0.34968,15.6848799 1.46947,18.5038299 2.01153,5.0639 6.5406,8.72843 13.73368,11.11207 2.63182,0.87213 5.78766,0.93423 54.55713,1.07359 56.29303,0.16086 56.80046,0.13968 62.48888,-2.60761 1.65119,-0.79747 4.96042,-3.55097 9.31477,-7.75051 11.47482,-11.06693 18.64291,-16.20298 30.82983,-22.0899899 8.39769,-4.0566 15.69849,-6.5373 24.24854,-8.23925 23.18681,-4.61555 47.21057,-1.35151 68.49412,9.30611 29.77145,14.9078899 49.23876,42.2045399 53.30291,74.7401299 0.99505,7.96567 0.35933,23.671882 -1.26591,31.276052 -8.77428,41.05392 -42.14343,71.19033 -85.61098,77.31723 -7.7126,1.08712 -24.29273,0.83773 -31.60776,-0.47542 -11.24367,-2.01841 -21.12245,-5.33475 -30.35429,-10.19004 -10.45493,-5.49856 -17.28355,-10.55668 -27.83528,-20.61829 -7.74587,-7.38611 -9.96223,-8.80034 -15.64268,-9.98152 -2.27314,-0.47266 -15.4612,-0.62247 -54.79791,-0.62247 -48.78862,0 -51.99652,0.0537 -55.1056,0.92261 -9.40512,2.62848 -14.4948,7.56583 -15.78087,15.30863 -0.25607,1.5417 -0.4669,8.72726 -0.46852,15.9679 -0.005,14.8103 -0.0567,15.08859 -3.626,18.9076 -2.95523,3.16198 -5.71701,4.50486 -12.24837,5.95558 l -1.39669,0.31022 v 24.78519 c 0,16.18951 -0.17613,24.78518 -0.50788,24.78518 -0.33176,0 -0.50789,-8.59567 -0.50789,-24.78518 z m -0.80337,-26.11012 c 0.7218,-0.27317 0.80337,-3.80268 0.80337,-34.75921 0,-30.95653 -0.0816,-34.48604 -0.80337,-34.75921 -0.44186,-0.16722 -16.78307,-0.30404 -36.313823,-0.30404 -19.807921,0 -35.510456,-0.19278 -35.510456,-0.43595 0,-0.41475 24.543712,-10.63086 35.278474,-14.68436 l 5.059278,-1.91041 h 52.712687 c 30.593,0 52.71274,0.1877 52.71274,0.44731 0,0.24602 -0.28568,0.55859 -0.63485,0.6946 -0.34918,0.13601 -9.27582,3.76663 -19.837,8.06805 l -19.20214,7.82076 H 126.9449 c -8.48073,0 -15.78103,0.13682 -16.22289,0.30404 -0.7218,0.27317 -0.80337,3.80268 -0.80337,34.75921 0,29.78572 0.10077,34.4933 0.74344,34.73652 0.89703,0.3395 5.82337,-0.87303 7.94664,-1.9559 2.37792,-1.21279 5.49344,-4.20697 6.71023,-6.44902 1.05097,-1.93642 1.11862,-2.82258 1.35992,-17.81624 l 0.25394,-15.77846 1.35616,-2.8534 c 1.75992,-3.70295 5.01801,-6.87257 9.09344,-8.84646 6.43191,-3.11521 5.30821,-3.05891 61.16228,-3.06431 32.61606,-0.003 51.96975,0.18086 54.08982,0.51429 5.95867,0.93717 8.96804,2.75069 16.48236,9.93282 3.72961,3.56467 8.55869,7.87441 10.73132,9.5772 13.63307,10.68478 27.95047,17.39198 44.3982,20.799 7.82885,1.6217 23.43094,2.24114 32.01523,1.27109 21.92309,-2.47737 41.54342,-11.19766 58.11999,-25.8315 4.77083,-4.2117 10.68008,-11.09645 10.68008,-12.44314 0,-1.05809 -0.16507,-1.07971 -9.26892,-1.2138 -5.0979,-0.0751 -9.26891,-0.21292 -9.26891,-0.30628 0,-0.0934 1.18678,-1.94502 2.6373,-4.11479 20.39918,-30.51411 20.80985,-71.723712 1.0304,-103.387132 l -2.03388,-3.25587 9.4678,-0.28946 c 5.20725,-0.1592 9.52489,-0.32825 9.59472,-0.37568 1.70228,-1.15593 -11.77924,-15.57516 -20.57826,-22.00953 -23.66315,-17.3039699 -54.21841,-23.9482699 -83.15368,-18.0819399 -14.45371,2.93034 -29.505,9.85758 -42.15821,19.4029299 -1.67602,1.26436 -6.49926,5.59784 -10.71827,9.62996 -8.51998,8.14251 -11.3873,9.93522 -17.72333,11.08088 -2.74121,0.49566 -15.24144,0.64284 -54.59771,0.64284 -46.95468,0 -51.31956,-0.0702 -54.50212,-0.87655 -7.71316,-1.95426 -12.46006,-5.32471 -15.18654,-10.78291 l -1.66927,-3.34183 -0.25394,-15.7913699 -0.25395,-15.79137 -1.38673,-2.3265001 c -2.50448,-4.20173 -7.84094,-7.45844 -12.47331,-7.61218 l -2.3923,-0.0794 -0.13068,33.02782 c -0.1032,26.0907 0.005,33.11181 0.50789,33.42765 0.3512,0.2199 16.57983,0.40327 36.06359,0.40748 19.48376,0.004 35.42502,0.1832 35.42502,0.39774 0,0.21453 -8.98195,4.04644 -19.95995,8.51536 l -19.95991,8.12529 H 89.154554 c -38.400381,0 -52.912604,-0.15201 -52.777136,-0.55283 0.170142,-0.5034 9.918438,-4.60028 31.552254,-13.26035 l 8.037773,-3.21754 15.832853,-0.008 c 8.708082,-0.004 16.120222,-0.18759 16.471422,-0.40749 0.50438,-0.31584 0.61109,-7.33694 0.50789,-33.42764 l -0.13068,-33.02783 -1.4132,-0.16007 c -1.73793,-0.19685 -6.08335,1.17772 -8.543292,2.70248 -2.534299,1.57083 -5.256977,4.83888 -5.960363,7.1543001 -0.381752,1.25666 -0.589432,6.52851 -0.589432,14.96253 0,7.1622299 -0.231951,14.2285199 -0.515453,15.7028399 -1.169859,6.08384 -4.780103,10.49688 -10.821586,13.22797 -6.663023,3.01204 -4.506144,2.89428 -59.259067,3.23557 -49.623363,0.30933 -50.604624,0.33438 -54.416661,1.38909 -10.153609,2.80932 -15.340026,7.28518 -18.801719,16.22581 -0.89332,2.30722 -2.340184,4.92982 -3.294451,5.97155 -0.935855,1.02164 -1.701559,2.01431 -1.701559,2.20592 0,0.19161 0.590544,1.11199 1.312321,2.04527 0.721776,0.93329 1.832634,3.22867 2.468583,5.10084 2.129885,6.27024 2.567667,9.83972 2.567667,20.93559 0,11.095862 -0.437782,14.665342 -2.567667,20.935582 -0.635949,1.87217 -1.746807,4.16755 -2.468583,5.10084 -0.721777,0.93328 -1.312321,1.84515 -1.312321,2.02635 0,0.18121 0.773424,1.22063 1.718721,2.30981 0.945292,1.08918 2.437582,3.85881 3.316199,6.15474 3.616674,9.45076 9.242894,13.9197 20.910911,16.60965 3.382011,0.77969 8.885937,0.9017 54.046159,1.19816 43.873662,0.28801 50.620064,0.43164 52.944068,1.12717 8.601698,2.57433 13.740333,7.54865 15.303382,14.81408 0.340984,1.58497 0.575551,8.14373 0.582209,16.27936 0.0126,15.36398 0.144595,16.0341 3.861678,19.60213 2.322968,2.22987 4.784896,3.5475 8.443756,4.5192 1.46631,0.38942 2.70449,0.72287 2.75147,0.74101 0.0467,0.0181 0.44694,-0.10386 0.8888,-0.27108 z m 78.81704,-67.19272 c 0.15496,-0.75761 1.13904,-5.3221 2.18681,-10.14329 l 1.90508,-8.76582 h 7.19633 c 9.01207,0 10.15055,0.9386 1.38734,1.14375 -3.33468,0.0781 -6.33222,0.3623 -6.66128,0.63162 -0.32906,0.26933 -0.89332,1.86089 -1.25392,3.53679 -0.55496,2.5791 -0.54592,3.11561 0.0588,3.49316 0.3929,0.24534 3.07606,0.44951 5.96252,0.45373 3.96969,0.006 5.19684,0.1602 5.03742,0.6338 -0.14866,0.44172 -1.94602,0.6676 -6.10276,0.76696 l -5.89208,0.14083 -0.56914,1.70092 c -0.31306,0.9355 -0.61413,2.67538 -0.66903,3.86639 l -0.0999,2.16549 6.05369,0.25045 c 4.20311,0.17389 6.11799,0.44185 6.26395,0.87658 0.16192,0.48236 -1.54585,0.62613 -7.43773,0.62613 h -7.64789 z m -0.31651,-67.621982 c -0.005,-0.20662 0.9468,-4.82746 2.11534,-10.26852 l 2.12469,-9.89285 h 5.27424 c 7.77939,0 9.79473,1.47097 9.79473,7.149 0,3.57801 -1.17367,6.79363 -3.42747,9.39046 -2.73339,3.14946 -4.99043,3.97342 -10.9203,3.98659 -2.72354,0.006 -4.9561,-0.15806 -4.96123,-0.36468 z m 11.58898,-1.8308 c 3.22645,-1.65564 5.67446,-6.06238 5.79036,-10.42349 0.12783,-4.80726 -1.787,-6.55956 -7.23138,-6.61767 -1.91402,-0.0204 -3.72087,0.1992 -4.01519,0.48807 -0.6314,0.61963 -3.584,13.61114 -3.584,15.7696 v 1.48726 h 3.83439 c 2.30372,0 4.38183,-0.28094 5.20582,-0.70377 z m 229.37,80.723112 c 0.70637,-0.61986 2.0869,-2.46051 3.06794,-4.09031 2.1835,-3.62762 1.86587,-4.2617 -2.1992,-4.39011 l -2.85818,-0.0903 2.53943,-0.16085 c 5.59182,-0.35419 5.55571,-0.33309 7.61493,-4.44337 2.32622,-4.64317 2.05846,-5.23327 -2.37431,-5.23327 -1.8807,0 -2.89698,-0.18846 -2.70119,-0.50091 0.17263,-0.27549 1.99807,-0.5009 4.05658,-0.5009 h 3.74266 l 1.10618,-2.8802 c 0.6084,-1.5841 1.13903,-3.55641 1.17921,-4.3829 l 0.0731,-1.50271 -3.80914,-0.26417 c -4.4795,-0.31067 -3.79162,-0.90796 1.26931,-1.10215 l 3.55479,-0.13639 0.67798,-2.00362 c 0.37289,-1.10198 0.71586,-3.01794 0.76223,-4.25768 l 0.0843,-2.25406 -3.68217,-0.14717 c -4.85102,-0.19389 -4.76102,-1.10509 0.10909,-1.10509 4.37996,0 4.51871,-0.12675 5.02685,-4.59327 0.48473,-4.260362 0.33592,-4.423002 -4.04754,-4.423002 -2.16461,0 -3.7548,-0.21213 -3.7548,-0.5009 0,-0.28956 1.61249,-0.5009 3.82174,-0.5009 3.63499,0 3.84586,-0.0628 4.31703,-1.28487 0.65075,-1.68814 0.63343,-5.5391 -0.0305,-6.76252 -0.44186,-0.81431 -1.0853,-0.96888 -4.03312,-0.96888 -4.93004,0 -5.06011,-0.92378 -0.15566,-1.10567 l 3.95272,-0.14659 -0.0269,-3.51398 c -0.0404,-5.28722 -0.008,-5.25183 -4.78205,-5.25183 -2.38076,0 -4.07903,-0.20855 -4.07903,-0.5009 0,-0.28538 1.50293,-0.50091 3.49303,-0.50091 4.52095,0 4.92858,-0.43222 4.10961,-4.35802 -0.97387,-4.66882 -0.96117,-4.65824 -5.58898,-4.65824 -2.35821,0 -4.0452,-0.20889 -4.0452,-0.5009 0,-0.28538 1.50293,-0.50091 3.49303,-0.50091 2.177,0 3.68994,-0.23589 4.01575,-0.62613 0.36796,-0.44076 0.15643,-1.76952 -0.71454,-4.48819 -1.38186,-4.31311 -1.23081,-4.21877 -7.30213,-4.56098 -2.74741,-0.15486 -2.73796,-0.15898 0.57269,-0.25011 4.66691,-0.12847 4.96337,-0.61709 2.99241,-4.93256 -0.86035,-1.88376 -1.94388,-3.70677 -2.40783,-4.05114 -0.47228,-0.35057 -2.53308,-0.66318 -4.68255,-0.71033 -2.11149,-0.0463 -2.92487,-0.16049 -1.80752,-0.25372 6.11738,-0.51045 6.27864,-0.75035 3.51767,-5.23296 -2.89597,-4.70176 -2.21195,-4.44719 -11.94999,-4.44719 -9.9216,0 -10.08209,0.0798 -7.87116,3.91482 6.83162,11.84976 10.77372,22.72438 12.83488,35.40611 1.13136,6.96086 1.11689,22.29858 -0.0274,29.302862 -2.24673,13.7497 -7.04021,26.40536 -14.17798,37.43259 -1.37597,2.1257 -1.66363,3.18644 -1.03294,3.80847 0.18619,0.18367 4.05877,0.33394 8.60572,0.33394 7.85419,0 8.3313,-0.0563 9.55139,-1.12704 z m -627.60525,-8.42085 c 10.6614,-0.87154 20.32903,-3.35297 27.99155,-7.18469 1.31025,-0.65521 5.21266,-3.04405 8.67202,-5.30854 3.45935,-2.26448 7.45895,-4.58087 8.888,-5.14752 1.42904,-0.56666 2.80633,-1.2089 3.06065,-1.4272 0.26654,-0.2288 -0.21916,-1.65806 -1.14671,-3.3744 -2.19677,-4.06489 -3.50837,-9.55082 -4.22602,-17.675802 -0.71807,-8.12975 -0.0287,-18.04023 1.68996,-24.29488 0.59387,-2.16127 1.10431,-4.60253 1.1343,-5.42501 0.0541,-1.48398 0.0252,-1.49986 -3.77644,-2.07674 -24.54031,-3.72387 -40.67548,-22.41311 -47.1798,-54.64801 -0.82104,-4.0690099 -1.8529,-10.2044299 -2.29303,-13.6342599 -0.44336,-3.45496 -1.06953,-6.40021 -1.40406,-6.60412 -1.64476,-1.00254 -8.80884,1.95007 -11.6645,4.80742 -3.69751,3.6997 -3.68685,3.64049 -3.9698,22.0580599 l -0.25394,16.52982 -1.3528,2.50452 c -2.61655,4.84414 -7.06659,8.01495 -18.39823,13.10939 -3.9418,1.77213 -8.65248,4.02088 -10.46817,4.99721 -6.4911,3.49038 -13.69309,9.4418 -19.28048,15.93258 l -3.6213,4.2068 -7.25545,0.16179 c -6.99546,0.15601 -7.32033,0.21066 -9.06597,1.52528 -2.08708,1.57175 -4.1373,5.32159 -5.0083,9.16018 -1.06476,4.6924 -5.36951,4.253 41.66646,4.253 h 41.65289 l 0.2034,-1.12703 c 1.32184,-7.32409 2.03803,-10.06117 3.24034,-12.38359 1.52673,-2.9491 4.0508,-5.02281 6.11362,-5.02281 7.66507,0 11.92243,18.72434 7.14406,31.420342 -1.37523,3.65393 -4.72026,7.15007 -6.83845,7.14736 -2.14281,-0.003 -4.50358,-1.63425 -5.99391,-4.14235 -1.48479,-2.49878 -3.34183,-9.113472 -3.34183,-11.903492 0,-1.02418 -0.31073,-2.11649 -0.69051,-2.42735 -0.5031,-0.4118 -11.90974,-0.5304 -42.02753,-0.43701 l -41.33703,0.12819 0.10095,2.90434 c 0.10945,3.14917 1.91994,7.735512 3.86451,9.789592 2.15983,2.28147 3.42991,2.58358 10.86497,2.5844 5.65658,5e-4 7.35079,0.16974 8.78219,0.87659 1.01972,0.50355 3.64909,3.11127 6.18623,6.13529 7.92093,9.44094 14.23855,14.43611 22.97583,18.1664 12.27683,5.24146 28.5927,7.29888 46.36233,5.84625 z m -30.55128,-7.31995 c -4.35064,-1.20964 -5.93094,-5.89535 -4.07123,-12.07155 1.66167,-5.51854 6.34203,-9.2724 11.56093,-9.2724 4.16867,0 6.96387,1.85373 6.96387,4.61832 0,1.42455 -1.23718,1.3019 -1.92689,-0.19103 -0.82937,-1.79525 -2.93542,-2.94843 -5.3847,-2.94843 -5.82246,0 -10.42169,6.14872 -9.83332,13.14617 0.18167,2.16062 0.5056,2.95355 1.57835,3.86361 3.21986,2.73154 8.37884,1.74666 11.1482,-2.12824 0.86162,-1.20559 1.86541,-2.19198 2.23065,-2.19198 0.90688,0 0.85293,0.22572 -0.59432,2.4868 -2.176,3.39963 -7.95631,5.72171 -11.67154,4.68873 z m 388.68896,-5.48272 c 17.14033,-6.96061 18.36022,-7.5066 18.36022,-8.21742 0,-0.31348 -17.85482,-0.48804 -49.91739,-0.48804 -48.060765,0 -50.021366,0.0361 -52.714171,0.96948 -3.218781,1.11576 -29.366329,11.72304 -30.921754,12.54403 -0.57001,0.30087 -1.036381,0.76451 -1.036381,1.03031 0,0.30719 18.339303,0.48328 50.3313,0.48328 h 50.331276 z m -50.10276,0.71152 c -1.42462,-1.40503 -0.35131,-3.90705 1.67602,-3.90705 2.13881,0 3.02141,2.20807 1.48739,3.721 -0.95051,0.93745 -2.31987,1.01799 -3.16341,0.18605 z m -233.79083,-7.36507 c 0.57286,-0.35785 0.45892,-0.92499 -0.6274,-3.12298 -5.68879,-11.51024 -5.81336,-35.727452 -0.24681,-47.982152 1.12698,-2.48103 1.31494,-3.31315 0.81856,-3.62388 -0.91499,-0.57278 -21.39223,-0.51739 -22.93749,0.062 -6.96588,2.61202 -9.92788,31.60755 -4.81197,47.105122 1.4381,4.35641 2.81092,6.48503 4.70763,7.29937 1.81679,0.78003 21.90356,1.0083 23.09748,0.26248 z m 36.094487,-0.0211 c 0.618828,-0.38613 0.51463,-0.90138 -0.661242,-3.2698 -5.443473,-10.96421 -5.757143,-34.120742 -0.632759,-46.713602 0.922884,-2.26793 1.559615,-4.24023 1.414959,-4.3829 -0.144656,-0.14267 -6.402904,-0.2594 -13.907215,-0.2594 -14.73748,0 -15.08253,0.0665 -13.43491,2.58928 2.67212,4.09145 4.38873,13.7737 4.39151,24.76958 0.003,10.573012 -1.34064,18.441422 -4.11247,24.088532 -1.84084,3.75041 -2.18464,3.65298 12.85961,3.64433 7.341361,-0.004 13.678494,-0.21393 14.082517,-0.46602 z m 26.319797,0.055 c 0.496377,-0.31072 0.308419,-1.14285 -0.818559,-3.62388 -5.574411,-12.27199 -5.446251,-37.112402 0.248661,-48.196262 1.028509,-2.00177 1.148456,-2.58164 0.604374,-2.92177 -0.92611,-0.57896 -21.381392,-0.55539 -22.933013,0.0265 -4.029915,1.5111 -6.880063,11.08716 -7.315539,24.57906 -0.501096,15.524862 2.97203,29.322152 7.602474,30.201452 2.108711,0.40044 21.959233,0.34335 22.611602,-0.065 z m -55.698094,-1.13513 c 4.5013,-4.43942 7.06185,-20.645232 5.51534,-34.906662 -1.80103,-16.60849 -7.66632,-23.69732 -12.20116,-14.74642 -2.89653,5.71719 -4.29204,15.36214 -3.85774,26.66262 0.31038,8.076472 1.05376,12.549012 2.98871,17.981562 1.9456,5.46243 5.02492,7.50404 7.55485,5.0089 z m -7.86866,-20.848722 c -0.44563,-0.43951 -0.36657,-5.78557 0.0962,-6.50367 0.32443,-0.50346 9.69878,-4.65434 10.51135,-4.65434 0.14113,0 0.25661,1.55025 0.25661,3.445 0,3.80918 -0.10129,3.95997 -3.5552,5.2929 -1.25702,0.48511 -3.34616,1.29673 -4.64255,1.8036 -1.29638,0.50688 -2.49626,0.7843 -2.6664,0.61651 z m 5.31681,-2.43961 c 4.12355,-1.64302 5.03945,-2.4567 5.03945,-4.47701 0,-2.69366 -0.93144,-2.96481 -4.8996,-1.42631 -1.91428,0.74218 -3.7662,1.56704 -4.11537,1.83302 -0.65888,0.5019 -0.89111,4.44938 -0.29626,5.03604 0.50394,0.49702 0.72746,0.44648 4.27178,-0.96574 z m 64.948885,23.360222 c 7.493873,-7.39085 8.064828,-41.133892 0.874671,-51.692602 -0.887515,-1.30332 -1.548264,-1.70825 -2.98136,-1.82711 -1.587793,-0.13168 -2.025062,0.0851 -3.177724,1.57556 -3.002432,3.88228 -4.744851,11.41007 -5.177874,22.37006 -0.420174,10.63466 0.80285,19.874972 3.432093,25.930452 1.832188,4.21977 4.856652,5.7873 7.030194,3.64364 z m -6.581441,-24.502042 c 0,-0.57075 8.058784,-3.80278 8.470192,-3.39702 0.167607,0.1653 -0.24119,0.51084 -0.90844,0.76785 -2.044072,0.78736 -3.66728,1.44122 -5.657181,2.27881 -1.047514,0.44093 -1.904571,0.59859 -1.904571,0.35036 z M -203.24452,109.2755 c 3.21522,-2.49433 5.36944,-9.407712 5.36944,-17.231752 0,-13.33773 -6.14535,-22.23021 -11.50986,-16.65505 -3.28649,3.41554 -4.8614,8.71594 -4.87432,16.40459 -0.0138,8.217292 1.87612,14.424562 5.24241,17.218172 1.91562,1.58973 3.94391,1.68251 5.77233,0.26404 z m 51.06529,-43.000092 c 2.20641,-1.3768 -3.28049,-5.98158 -16.47741,-13.82836 -10.85141,-6.45217 -13.41838,-8.25236 -16.6622,-11.68502 -4.38497,-4.64025 -4.39115,-4.67105 -4.4039,-21.91245 -0.0119,-16.0883099 -0.18606,-17.4639099 -2.6228,-20.7144699 -1.83262,-2.44466 -5.95104,-4.92563 -9.67502,-5.82829 -5.6128,-1.36049 -5.59956,-1.39289 -3.95153,9.67203 4.76336,31.9813299 16.31915,52.0438299 34.71504,60.2702599 6.75547,3.02097 17.16744,5.21838 19.07782,4.0263 z m 311.61672,-8.96801 c 11.33936,-4.63917 16.76023,-7.09702 16.76023,-7.59916 0,-0.64657 -4.18066,-0.75882 -32.4481,-0.87116 -23.54523,-0.0936 -32.6378,0.0264 -33.13954,0.43701 -0.43983,0.36001 -0.69144,1.63734 -0.69144,3.51006 0,1.62879 -0.22692,2.94409 -0.50788,2.94409 -0.28021,0 -0.50789,-1.30235 -0.50789,-2.90524 0,-1.59789 -0.27426,-3.17573 -0.60946,-3.50633 -0.44664,-0.44051 -4.63654,-0.60108 -15.68399,-0.60108 -17.562051,0 -13.393858,-0.96074 -36.399687,8.38983 -8.435767,3.42865 -14.347769,6.10075 -14.347769,6.48486 0,0.53303 9.280858,0.64602 50.40765,0.6137 l 50.407656,-0.0396 16.76022,-6.85695 z m -305.49322,92.265952 c 0,-0.17862 2.67169,-4.8103 5.93709,-10.29262 5.45457,-9.15775 6.04277,-9.95572 7.23737,-9.81854 1.27981,0.14697 1.32174,0.28736 2.66287,8.91514 1.67115,10.75079 1.71583,11.64837 0.56899,11.43055 -0.60071,-0.1141 -1.02385,-0.99781 -1.39669,-2.91693 l -0.53489,-2.75323 h -4.82491 -4.82491 l -1.72188,2.88019 c -0.94703,1.58411 -2.03263,2.8802 -2.41246,2.8802 -0.37981,0 -0.69058,-0.14615 -0.69058,-0.32476 z m 13.65528,-7.87165 c 0.42373,-0.50355 0.43003,-1.72022 0.024,-4.63336 -0.85236,-6.11545 -1.28891,-6.12967 -4.78263,-0.15586 -1.89259,3.23609 -2.24144,4.1798 -1.75762,4.75475 0.79695,0.94706 5.72635,0.97313 6.51624,0.0345 z m 47.29516,7.57028 c 0.0072,-1.08515 3.923585,-18.7888 4.283477,-19.36311 0.465666,-0.74311 10.176835,-0.71963 11.617179,0.0281 1.540092,0.7995 1.854453,1.39656 1.863407,3.53913 0.0057,1.37844 -0.40544,2.32512 -1.585848,3.65105 l -1.593623,1.79008 1.154201,1.2117 c 0.962636,1.01059 1.110451,1.59447 0.890613,3.51802 -0.298099,2.60836 -1.756426,4.49504 -4.301025,5.56438 -2.182136,0.91701 -12.334404,0.96697 -12.328381,0.0607 z m 12.514668,-1.63075 c 1.791689,-1.15782 2.966058,-4.0703 2.258654,-5.60154 -0.770411,-1.66762 -2.686502,-2.22058 -7.117443,-2.05398 l -3.850896,0.14478 -0.918288,3.74223 c -0.885793,3.60981 -0.885793,3.76655 0,4.4294 1.242355,0.92967 7.870714,0.47468 9.627973,-0.66089 z m 1.270471,-9.80513 c 1.471985,-0.77695 2.631209,-3.72287 1.955177,-4.96867 -0.840337,-1.5486 -2.212868,-2.00366 -6.043387,-2.00366 -4.149025,0 -4.403506,0.24265 -4.935389,4.70591 l -0.33458,2.80765 h 4.166399 c 2.29152,0 4.627824,-0.24355 5.19178,-0.54123 z M -334.98919,105.31771 c 0,-0.31239 2.96266,-0.5009 7.87223,-0.5009 4.90956,0 7.87223,0.18851 7.87223,0.5009 0,0.31239 -2.96267,0.5009 -7.87223,0.5009 -4.90957,0 -7.87223,-0.18851 -7.87223,-0.5009 z m 126.97141,-186.801252 c 0,-3.21047 -0.84414,-4.04301 -4.09936,-4.04301 -1.37673,0 -2.50315,-0.22541 -2.50315,-0.5009 0,-0.2755 1.21131,-0.50091 2.69179,-0.50091 1.48049,0 2.96606,-0.27049 3.30126,-0.60108 0.3352,-0.3306 0.60946,-1.84082 0.60946,-3.35606 0,-3.5668 0.90132,-2.79654 1.11365,0.95172 l 0.15607,2.75497 2.79337,0.15392 c 3.80051,0.20942 4.5815,1.09834 0.96498,1.09834 -1.53635,0 -3.06763,0.27049 -3.40283,0.60108 -0.33521,0.3306 -0.60947,1.79574 -0.60947,3.25588 0,1.46013 -0.22854,2.65479 -0.50788,2.65479 -0.27934,0 -0.50789,-1.11094 -0.50789,-2.46874 z"
                                   style="fill:#363636;stroke-width:0.50438255" />
                                </g>
                                </g>
                                </g>
                                </g>
                                </g>
                                </g>
                                </g>
                                </g>
                                </g>
                                </g>
                                </g>
                                </g>
                                </g>
                                </g>
                                </g>
                                </g>
                                </g>
                                </g>
                                </g>
                                </g>
                                </g>
                                </g>
                              </g>
                            </g>
                          </g>
                        </g>
                      </g>
                    </g>
                  </g>
                </g>
              </g>
            </g>
          </g>
        </g>
      </g>
    </g>
  </g>
</svg>
